<svg xmlns="http://www.w3.org/2000/svg" viewBox="0 0 1200 580"><path fill="#F9A7D6" d="M0-396.875h1200v1373.75H0z"/><g fill="#F48CC7"><path d="M1111.359 249.01s8.163 6.156 8.269 14.563c.103 8.404-1.037 14.736 3.77 14.908 4.809.172 7.957-10.655 3.526-18.818-4.427-8.164-15.565-10.653-15.565-10.653zM1179.948 207.531c.219-2.166-1.097-4.072-2.939-4.258-1.841-.186-3.512 1.418-3.73 3.584-.521 5.15 2.064 12.881 2.064 12.881s4.059-6.831 4.605-12.207zM1196.947 262.346c1.241-.955 1.336-2.913.213-4.371-2.67-3.468-8.745-6.72-8.745-6.72s1.468 6.557 4.254 10.178c1.123 1.459 3.038 1.867 4.278.913z"/><path d="M1146.563 200.507s18.25 6.25 6.75 25.75c-9.764 16.556-32.854 18.694-39.606 18.963 8.22-.03 41.249 1.26 59.106 23.037 20.5 25 .75 35.5.75 35.5s33.555-12.175 15.75-43.333c-10-17.5-24-21.917-24-21.917s21.25-35-18.75-38z"/><path d="M1124.813 166.257c-9.5-7.5-20.25-8.75-25.25-22.5 0 0-12.649 18.824 1.25 37 9.75 12.75 21 11.75 27.5 22.75 0 0 4.75-9.25-14-26.5 0 0 16.25 10 15.25 28.5 0 0 3.784 24.089-16 29.25-18.006 4.697-25.127-4.458-26.823-7.232 1.864 3.136 10.043 14.648 27.323 9.732 23.354-6.645 17-32.75 17-32.75s13.397-22.74-6.25-38.25zM1198.406 252.353c2.464-.685 5.56-6.051-3.205-11.247s-24.3-2.515-24.3-2.515c4.968.667 11.941 3.437 15.806 6.465 3.865 3.028 9.236 7.981 11.699 7.297zM1147.396 264.798c2.672 4.119 6.143 10.548 8.694 10.702 2.553.153 7.224-3.917.623-11.678-6.601-7.761-22.165-10.272-22.165-10.272 4.482 2.243 10.176 7.128 12.848 11.248zM1190.413 220.761c5.286-8.71.027-11.987-2.469-11.431-2.495.557-4.9 7.455-6.885 11.947-1.985 4.49-6.831 10.218-10.899 13.145 0 0 14.967-4.949 20.253-13.661zM1197.946 226.412c-8.804 1.786-20.6 8.464-20.6 8.464s13.083 1.628 22.269-.236c3.7-.75 6.325-3.201 5.864-5.473-.462-2.272-3.833-3.505-7.533-2.755zM923.479 13.665c3.388 3.137 12.456-2.763 14.349-11.472 1.893-8.707-4.646-17.492-4.646-17.492s2.079 9.587-3.108 15.764c-5.189 6.176-9.983 10.064-6.595 13.2zM966.258 50.311c8.236 1.876 17.221-15.762 12.264-31.297-4.957-15.533-23.35-23.485-23.35-23.485s12.059 13.299 9.478 27.83c-2.581 14.532-6.629 25.078 1.608 26.952zM1056.143 10.89c7.3-4.251 1.825-23.274-12.401-31.243-14.225-7.967-33.094-1.224-33.094-1.224s17.89 1.487 25.924 13.868c8.032 12.383 12.272 22.852 19.571 18.599zM1016.625 70.26c13.85-15.318 10.844-40.521 10.844-40.521s-6.882 21.672-24.435 28.1c-17.554 6.427-31.679 8.71-28.485 18.924 3.189 10.213 28.223 8.818 42.076-6.503zM963.299 80.6c-3.287 2.967 1.569 12.137 9.727 14.692 8.155 2.557 17.109-2.935 17.109-2.935s-9.338 1.163-14.793-4.324c-5.454-5.485-8.756-10.4-12.043-7.433zM1069.628 4.572c.103 8.404-1.037 14.736 3.77 14.908 4.809.172 7.957-10.655 3.526-18.818-4.428-8.163-15.566-10.652-15.566-10.652s8.164 6.156 8.27 14.562zM1146.947 3.346c1.241-.955 1.336-2.913.213-4.371-2.67-3.468-8.745-6.72-8.745-6.72s1.468 6.557 4.254 10.178c1.123 1.459 3.038 1.867 4.278.913z"/><path d="M954.563-41.743a29.455 29.455 0 0 0 9.791 4.062c4.899 2.052 11.658 3.834 19.248 4.532 5.592 1.776 15.83 6.208 25.711 16.656 10.33 10.923 20.455 30.827 23.5 50.5 6.5 42-18.874 58.439-41.75 64.75-21.75 6-55-3.25-55.25-29-.132-13.557 18.75-16.25 22.25-4.75 2.014 6.615-1.75 12.5-5 14.5 0 0 9.578.28 12.25-6.75 4.75-12.5-6.048-25.103-18-24-16.25 1.5-22.801 16.289-15.5 33 5.39 12.337 16.296 20.414 29.707 23.653-14.521-2.723-34.15-10.008-42.207-29.403 0 0-.5-13 3-24.25s.5-36.75-34.5-41.5c0 0 12 11.5 10.25 23s-4.25 25 17.25 43.25c0 0-15.75-19-8-34 0 0-5.75 13.75 9.75 34.5 0 0 10.25 33.25 61.75 30 0 0-.842.027-2.319-.006 10.884-.187 22.552-3.096 33.819-8.994 21.38-11.191 26.298-32.513 26.704-48.163a52.505 52.505 0 0 0 2.296 5.913c5.694 12.365 18.75 22 20.533 35.613 1.055 8.052-1.795 20.942-15.75 21.583-13.956.64-16.982-11.453-16.921-12.902.063-1.45 1.555-8.351 10.567-5.314 9.013 3.035 4.852 13.367 4.852 13.367 11.961-6.92 5.29-19.725-1.747-21.992-7.038-2.268-16.893-.597-20.984 10.122-4.092 10.719 5.208 26.359 21.941 26.319 19.26-.046 27.556-17.31 26.781-29.697-1.021-16.349-17.192-25.178-24.771-37.099-3.496-5.5-5.67-10.671-7.025-14.918-.259-3.352-.658-6.069-.975-7.832-1.652-9.205-13.337-56.507-49.771-65.975 11.302.667 24.124-1.156 35.271-8.025 10.274-6.331 21.5-19.75 32.5-12.5 6.14 4.046 2.421 14.543-5.167 15.75-7.333 1.167-10.333-8.25-10.333-8.25-6 7-.853 18.854 12.25 20 21.917 1.917 29.811-27.036 10.083-38.917-15.083-9.083-29.333 2.167-48.833 15.167-7.162 4.774-15.906 7.453-24.107 8.938 10.132-4.66 18.393-12.92 21.107-21.188 5.5-16.75-2.5-42.25-24.5-51.25s-41.75 10.75-40.5 27 14 22.5 24.5 22.25 24.75-15 11.25-29.25c0 0 1.5 15.75-12 16.25s-12.75-9.5-12.25-11.5 9.5-17.25 28.25-10.75 18.5 25.75 12.75 35.75-23.25 20-39.75 15-16.5-28.75-16.5-28.75-6.001 22.25 14.499 35.5z"/><path d="M936.011-74.417c-3.382 1.841-19.07 11.931-12.364 37.674 5.666 21.75 22.22 30.377 26.334 44 4.832 16 1.309 28.421-8.334 27.667-5.334-.417-9.584-6.917-7.666-14.333 0 0-3.344 2.589-3.918 6.666-.613 4.351 1.305 11.685 7.5 13.75 20.506 6.835 30.25-19.75 18.751-37.75-10.685-16.726-24.849-30.441-27.667-42-3.657-15-3.014-25.182 4.938-33.251-4.709 5.268-10.306 15.26-3.272 29.001 10.75 21 32.75 11.5 43.75 21.5s-7 19.25-9.25 19.5c0 0 25.75 3.5 28-12.25s-21.108-18.223-33.75-21.5c-6.75-1.75-35.5-2.5-20.75-40.5 0 0-.953.625-2.302 1.826zM1063.707-13.781c8.22-.03 41.249 1.26 59.106 23.037 20.5 25 .75 35.5.75 35.5s33.555-12.175 15.75-43.333c-10-17.5-24-21.917-24-21.917s21.25-35-18.75-38c0 0 18.25 6.25 6.75 25.75-9.763 16.557-32.854 18.695-39.606 18.963zM1063.707-13.781c-1.216.004-1.894.037-1.894.037s.693.011 1.894-.037z"/><path d="M890.313-27.493c9.25 20-4.598 24.933-8.334 25.75-5.333 1.167-10.651-2.666-10.5-7.667.167-5.5 4-9 10-8.167 6.481.9 8.334 7.334 8.334 7.334 3.25-9.25-5-17.167-13-16.75-6.496.338-16.75 5.5-18 16s8.03 23.461 23.5 21c11-1.75 25.333-7.667 18.333-35.417s6.667-38.084 6.667-38.084c-7 7.25-8 20-1.25 36.25s-3.5 25.5-3.5 25.5c29.417-11 16.083-27.833 16-46.5-.116-26.03 21.75-33 21.75-33-51.25 4.751-59.25 33.751-50 53.751zM878.063 31.757c6 1 12.75 6.75 14.75 11 0 0-3-21.75-15-27.75s-19.25 1.75-17.5 8c2.1 7.498 11.75 7.75 17.75 8.75z"/><path d="M848.563 34.507s24.5 7.75 27.5 24.25c0 0-23.572-16.038-35 6.5-9 17.75 11.75 37.5 28.25 30 0 0-17.646-1.874-15-17.75 2.25-13.5 19.338-10.908 25-.75 8.5 15.25 18.75 31.25 56 24.25 0 0-22.643-2.594-36.25-31.75-10.5-22.5-15.5-38.5-50.5-34.75zM1084.549-5.451c4.481 2.244 10.176 7.13 12.848 11.249 2.672 4.119 6.143 10.548 8.694 10.702 2.553.153 7.224-3.917.623-11.678-6.602-7.762-22.165-10.273-22.165-10.273zM987.758 36.402c5.375 8.332 21.581 7.886 26.87-11.914 5.288-19.8-16.55-45.256-16.55-45.256 2.835 6.591 2.577 20.134-2.356 28.009-4.931 7.875-14.413 19.167-7.964 29.161zM1039.313 24.757c3.75 21 5.25 28.75 23.75 44.25s16.75 23.25 15.5 33.75c0 0 21.5-16.75 3.75-43.25 0 0 18.691.825 27-13.5 7.25-12.5-2.25-27-12.25-29-15.963-3.192-24.25 7.75-20.75 19.5 0 0 2.886-9.727 11.75-9.5 9.75.25 14.25 8.75 8.75 16-4.11 5.418-11.5 6.5-18.75 5.5-8.232-1.136-18.5-7-24-20.75s-9.75-26.25-30.75-34c0 0 12.25 10 16 31zM1207.5 86.488c6.002-6.587 4.745-17.466 4.745-17.466s-3.005 9.339-10.59 12.085c-7.583 2.746-13.682 3.708-12.32 8.12 1.361 4.41 12.166 3.849 18.165-2.739zM1196.957 179.571c-1.97-7.48-2.367-13.388-6.698-12.467-4.331.92-4.723 11.291 1.056 17.589 5.777 6.299 16.277 6.033 16.277 6.033s-8.665-3.673-10.635-11.155z"/><path d="M1301.094 66.506c13.149-11.741 19.003-37.817 4.474-56.629-14.531-18.813-41.519-11.615-48.578 3.074-7.061 14.69.843 26.487 10.055 31.531 9.212 5.044 28.934-.581 24.392-19.678 0 0-6.593 14.383-18.526 8.052-11.935-6.332-6.273-14.61-4.841-16.09 1.435-1.481 16.865-10.169 29.834 4.851 12.971 15.02 3.109 31.554-6.877 37.328-9.986 5.773-30.142 5.659-41.917-6.935-11.773-12.594.126-33.148.126-33.148s-16.341 16.25-5.238 37.988a29.45 29.45 0 0 0 6.437 8.42c3.213 4.231 8.17 9.161 14.39 13.567 3.95 4.339 10.589 13.304 13.904 27.295 3.468 14.63 2.258 36.928-4.965 55.479-15.417 39.604-45.614 41.119-68.572 35.119-21.829-5.706-45.971-30.37-33.285-52.78 6.678-11.799 24.367-4.67 21.636 7.037-1.57 6.734-7.777 9.941-11.592 10.044 0 0 8.147 5.041 13.982.296 10.373-8.439 7.345-24.756-3.553-29.789-14.815-6.843-27.893 2.672-29.947 20.793-1.518 13.378 3.875 25.833 13.86 35.356-11.203-9.631-24.544-25.772-21.798-46.597 0 0 6.081-11.5 14.746-19.483 8.666-7.983 18.846-31.554-9.065-53.201 0 0 4.623 15.964-2.654 25.04-7.275 9.076-16.202 19.507-6.739 46.072 0 0-4.11-24.334 10.11-33.433 0 0-11.865 9.019-8.847 34.743 0 0-7.79 33.91 38.408 56.901 0 0-.742-.399-2.007-1.168 9.514 5.293 21.069 8.621 33.777 9.163 24.109 1.027 39.048-14.961 47.241-28.301a52.434 52.434 0 0 0-.976 6.267c-1.267 13.555 5.205 28.435-.073 41.108-3.121 7.498-12.045 17.226-24.445 10.788-12.396-6.438-8.958-18.42-8.179-19.644.781-1.224 5.53-6.448 11.811.696 6.276 7.142-2.501 13.999-2.501 13.999 13.819.003 14.461-14.42 9.508-19.909-4.955-5.488-14.321-8.979-23.231-1.754-8.914 7.227-8.703 25.422 5.799 33.771 16.689 9.61 32.521-1.173 38.058-12.282 7.308-14.66-2.264-30.403-2.851-44.518-.271-6.513.439-12.079 1.396-16.435a80.462 80.462 0 0 0 3.079-7.262c3.182-8.794 16.769-55.584-10.015-82.031 9.446 6.239 21.455 11.085 34.542 10.725 12.063-.332 28.502-6.319 34.391 5.466 3.285 6.578-5.192 13.798-12.364 11.041-6.931-2.665-4.809-12.316-4.809-12.316-8.699 3.051-10.184 15.889.582 23.446 18.006 12.64 39.345-8.462 28.224-28.628-8.502-15.418-26.469-12.821-49.86-11.342-8.59.544-17.5-1.519-25.341-4.343 11.104 1.043 22.392-1.966 28.884-7.76z"/><path d="M1247.22 18.849s-1.139.064-2.909.428c-3.853-.101-22.481.775-29.574 26.409-5.993 21.662 4.011 37.422.746 51.271-3.837 16.269-13.109 25.253-21.077 19.77-4.405-3.035-4.827-10.788.549-16.246 0 0-4.192.566-6.73 3.807-2.712 3.458-4.728 10.765-.399 15.657 14.321 16.189 36.074-1.936 35.142-23.275-.867-19.828-6.254-38.794-2.9-50.21 4.35-14.814 10.007-23.302 20.93-26.303-6.716 2.2-16.563 8.045-17.359 23.459-1.217 23.561 22.581 26.361 27.089 40.527 4.511 14.166-15.702 13.153-17.774 12.241 0 0 20.53 15.931 30.371 3.428 9.837-12.503-9.139-26.347-18.436-35.517-4.967-4.896-29.474-19.95 2.331-45.446z"/><path d="M1145.726 35.486c-6.342 8.461-4.806 24.327 9.815 29.948 10.397 3.997 25.766 6.059 33.61-21.464 7.848-27.523 24.852-29.618 24.852-29.618-9.69 2.767-16.944 13.301-19.245 30.746-2.299 17.444-15.805 20.314-15.805 20.314 30.97 5.22 27.865-16.029 37.146-32.225 12.941-22.586 35.358-17.662 35.358-17.662-46.734-21.568-68.188-.479-70.203 21.464-2.016 21.943-16.472 19.274-20.116 18.109-5.198-1.662-7.881-7.644-5.244-11.896 2.899-4.676 7.971-5.785 12.746-2.058 5.157 4.026 3.539 10.523 3.539 10.523 7.445-6.377 4.274-17.362-2.857-21.009-5.793-2.962-17.254-3.633-23.596 4.828zM1149.143 67.507c-7.38-11.205-17.537-8.13-19.154-1.845-1.939 7.541 6.285 12.594 10.978 16.466 4.689 3.872 7.652 12.229 7.253 16.91-.001-.001 8.3-20.326.923-31.531z"/><path d="M1140.351 125.104c2.187-24.734 5.877-41.085-26.294-55.376 0 0 17.321 18.982 11.651 34.765 0 0-12.367-25.69-33.547-11.911-16.683 10.852-8.621 38.341 9.416 40.117 0 0-14.332-10.463-4.087-22.876 8.711-10.556 22.2.249 22.011 11.877-.285 17.456.57 36.438 36.314 49.044 0-.001-18.296-13.591-15.464-45.64zM750.801 8.802c7.225 4.375 21.311-9.53 21.503-25.837.19-16.302-14.759-29.645-14.759-29.645s7.252 16.42.225 29.399c-7.03 12.977-14.194 21.709-6.969 26.083zM653.919-31.334c-7.44 7.688 5.762 29.004 25.842 33.839 20.078 4.833 40.771-9.864 40.771-9.864s-22.323 4.325-36.367-8.015c-14.043-12.339-22.805-23.65-30.246-15.96zM762.8 17.622c-7.331 4.112-13.435 6.138-11.289 10.441 2.151 4.307 13.165 1.892 18.213-5.903 5.05-7.795 1.908-18.766 1.908-18.766s-1.499 10.115-8.832 14.228zM838.27 37.6c-4.77 2.008-10.322 7.977-10.322 7.977s7.94.296 12.924-1.796c2.005-.843 3.052-2.911 2.331-4.619-.716-1.703-2.924-2.406-4.933-1.562zM799.622 80.739c-.74 1.685-.184 3.562 1.246 4.194 1.434.633 3.197-.222 3.938-1.904 1.772-4.004 1.722-10.895 1.722-10.895s-5.061 4.424-6.906 8.605zM776.079 3.634c-.581-1.059-.934-1.637-.934-1.637s.322.61.934 1.637z"/><path d="M811.683 29.35c-19.219-.654-32.146-19.927-35.604-25.717 3.949 7.182 18.639 36.819 8.053 62.934-12.145 29.961-30.815 17.641-30.815 17.641s26.745 23.643 45.586-6.9c10.584-17.153 7.767-31.561 7.767-31.561s40.899 1.917 24.396-34.644c-.001.001 3.242 19.018-19.383 18.247z"/><path d="M826.522-38.52c-6.532 14.66-.27 24.061-6.82 35.031 0 0 10.394-.253 16.573-24.97 0 0-1.009 19.055-17.732 27.026 0 0-19.342 14.848-33.338-.058-12.872-13.704-8.009-24.417-6.433-27.098-1.803 2.998-8.218 15.802 4.475 28.732 17.008 17.333 36.892-.737 36.892-.737s26.38.884 30.6-23.788c2.041-11.932-2.004-21.969 7.679-32.938-.001 0-22.583-2.103-31.896 18.8z"/><path d="M626.205-81.697s-24.294 24.907 3.198 68.577c0 0-.428-.729-1.109-2.048 5.371 9.472 13.509 18.328 24.081 25.403 20.047 13.414 41.121 7.545 55.059.42a52.595 52.595 0 0 0-4.083 4.832c-8.134 10.917-10.349 26.991-21.449 35.068-6.566 4.779-19.248 8.445-26.488-3.504-7.237-11.948 1.934-20.392 3.234-21.031 1.305-.639 8.078-2.631 9.726 6.737 1.643 9.365-9.419 10.655-9.419 10.655 11.799 7.191 19.851-4.792 18.476-12.056-1.375-7.264-7.559-15.118-18.928-13.584-11.372 1.534-20.657 17.183-12.614 31.858 9.253 16.889 28.382 15.918 38.89 9.311 13.867-8.719 13.883-27.142 20.726-39.5 3.155-5.7 6.655-10.082 9.737-13.304a80.156 80.156 0 0 0 6.414-4.606c7.293-5.856 43.238-38.745 34.125-75.266 4.82 10.243 12.556 20.629 23.92 27.129 10.473 5.995 27.627 9.434 26.525 22.562-.616 7.326-11.613 9.082-16.305 2.996-4.531-5.882 2.303-13.02 2.303-13.02-9.018-1.919-16.963 8.271-11.701 20.326 8.801 20.163 38.002 13.242 38.995-9.766.762-17.588-15.932-24.72-36.679-35.626-7.619-4.004-14.154-10.401-19.383-16.892 8.939 6.668 20.146 9.971 28.705 8.4 17.338-3.187 35.903-22.409 33.284-46.035-2.623-23.626-29.415-31.518-43.085-22.646-13.673 8.872-13.061 23.058-7.82 32.159 5.243 9.1 25.014 14.557 31.07-4.115 0 0-13.115 8.853-20.012-2.764-6.898-11.615 2.244-15.739 4.237-16.257 1.997-.52 19.693.089 22.956 19.664 3.26 19.574-13.762 28.564-25.294 28.3-11.532-.267-28.687-10.849-32.189-27.732-3.502-16.878 17.352-28.243 17.352-28.243s-22.41 5.376-24.237 29.717a29.452 29.452 0 0 0 1.116 10.54c.543 5.285 2.212 12.074 5.23 19.073 1.115 5.76 2.121 16.869-2.326 30.544-4.65 14.298-17.283 32.712-33.104 44.796-33.771 25.802-60.348 11.384-76.832-5.683-15.673-16.231-23.459-49.855-.968-62.393 11.843-6.6 23.241 8.692 14.817 17.266-4.844 4.934-11.814 4.445-15.125 2.548 0 0 4.336 8.544 11.787 7.528 13.249-1.811 19.153-17.321 12.464-27.289-9.093-13.552-25.211-12.229-36.392 2.176-8.257 10.637-10.131 24.081-6.557 37.409-4.558-14.055-7.555-34.782 5.624-51.138 0 0 11.177-6.655 22.731-8.964 11.555-2.31 32.511-17.144 19.938-50.15 0 0-4.357 16.038-15.295 20.004-10.936 3.966-23.984 8.227-29.725 35.838 0 0 9.15-22.918 26.028-23.291.002 0-14.824 1.528-25.629 25.067zM810.342 81.434c1.778 1.836 7.971 1.987 8.341-8.197.37-10.183-9.417-22.542-9.417-22.542 1.791 4.683 2.693 12.131 1.885 16.973-.809 4.844-2.59 11.927-.809 13.766zM769.772 55.346c1.086 2.315 6.893 4.469 10.551-5.04 3.659-9.51-1.582-24.378-1.582-24.378.174 5.009-1.395 12.348-3.73 16.663-2.34 4.317-6.325 10.442-5.239 12.755zM843.117 51.664c-1.683-1.926-8.892-.738-13.785-.33-4.893.404-12.239-1.111-16.759-3.283 0 0 11.508 10.778 21.686 11.251 10.176.474 10.54-5.714 8.858-7.638zM834.086 76.551c1.774-1.492 1.244-5.043-1.188-7.932-5.778-6.877-17.286-14.041-17.286-14.041s4.83 12.267 10.861 19.442c2.429 2.892 5.836 4.023 7.613 2.531z"/><path d="M720.631 55.043s8.216 16.807 24.77 17.251c14.445.387 22.635-14.893 19.607-24.631-4.836-15.546-18.408-17.586-27.053-8.893 0 0 9.925-2.118 13.965 5.774 4.443 8.681-.866 16.699-9.865 15.338-6.725-1.018-11.211-6.99-13.8-13.834-2.94-7.772-2.704-19.595 6.739-31.003 9.445-11.407 18.387-21.119 15.146-43.268 0 0-2.919 15.542-19.567 28.881-16.645 13.34-22.733 18.366-27.494 42.026-4.763 23.66-12.404 25.83-22.223 29.755 0 0 24.994 10.869 39.775-17.396zM1160.982-11.418c-6.333 17.245 5.321 25.932 13.559 22.594 9.884-4.003 8.755-17.171 9.201-25.488.443-8.318 7.239-18.384 12.719-21.753 0-.001-29.144 7.403-35.479 24.647zM82.902 242.949c-5.562 5.238 3.15 20.878 17.313 24.99 14.158 4.109 29.404-5.688 29.404-5.688s-16.066 2.344-25.674-6.919c-9.607-9.265-15.481-17.62-21.043-12.383zM71.512 266.914c-2.761 1.961-4.202 10.037 9.052 12.567 13.256 2.531 31.404-7.795 31.404-7.795-6.489 1.403-16.422 1.088-22.6-.945-6.175-2.034-15.093-5.785-17.856-3.827zM103.898 315.805c2.856-1.817 2.752-11.492 3.203-17.979.452-6.49 3.913-15.806 7.664-21.28 0 0-16.419 12.898-19.084 26.127-2.667 13.229 5.356 14.947 8.217 13.132zM105.609 279.212s-17.03 3.856-27.637 10.313c-4.271 2.598-6.438 6.832-4.842 9.453 1.597 2.624 6.353 2.646 10.623.044 10.164-6.184 21.856-19.81 21.856-19.81zM70.746 248.789c-2.108-1.557-4.891-1.364-6.214.432-1.323 1.79-.686 4.506 1.425 6.063 5.015 3.698 14.607 5.76 14.607 5.76s-4.585-8.395-9.818-12.255zM119.527 325.025c2.074-.811 2.982-3.45 2.026-5.889-2.272-5.802-9.291-12.661-9.291-12.661s-.595 9.547 1.776 15.604c.956 2.442 3.414 3.763 5.489 2.946zM61.865 280.845c-2.617.148-4.637 2.07-4.512 4.296.123 2.223 2.346 3.908 4.963 3.762 6.224-.347 14.929-4.873 14.929-4.873s-8.886-3.546-15.38-3.185zM81.966 318.774c2.025.928 4.553-.255 5.642-2.641 2.589-5.663 2.64-15.479 2.64-15.479s-7.273 6.213-9.98 12.126c-1.091 2.385-.328 5.066 1.698 5.994zM174.833 580.145c-2.456 43.404-48.192 45.272-48.192 45.272-45.092 6.814-37.682-24.863-37.682-24.863-1.762 29.163 30.173 25.143 30.173 25.143-12.224-7.77-7.033-16.944-11.351-32.503-6.303-22.731-30.994-29.415-30.994-29.415 4.373 8.053 4.154 14.534 1.355 23.384-2.796 8.848-7.512 22.803 2.986 33.293 14.805 14.792 38.249 7.938 38.249 7.938 64.406-4.949 55.456-48.249 55.456-48.249zM226.937 567.143c-4.679-6.038-11.78 1.303-22.711 8.96-10.932 7.657-26.436 2.843-26.436 2.843s13.534 12.049 28.164 10.19c14.628-1.86 25.667-15.956 20.983-21.993zM165.22 552.263c-6.712-5.862-17.508-5.191-18.359-.65-.852 4.536 5.319 4.8 13.165 6.662 7.849 1.865 11.896 10.801 11.896 10.801s.009-10.95-6.702-16.813zM192.813 482.318c-3.364-3.162-12.478 2.667-14.437 11.36-1.963 8.692 4.512 17.528 4.512 17.528s-2.006-9.603 3.229-15.74c5.236-6.133 10.06-9.987 6.696-13.148zM150.318 445.343c-8.223-1.94-17.342 15.629-12.504 31.202 4.835 15.567 23.166 23.662 23.166 23.662s-11.955-13.392-9.262-27.902c2.694-14.511 6.822-25.024-1.4-26.962zM72.291 515.406c14.163 8.076 33.084 1.477 33.084 1.477s-17.877-1.623-25.816-14.067c-7.936-12.442-12.096-22.944-19.426-18.748-7.333 4.195-2.008 23.259 12.158 31.338zM100.108 425.005c-13.97 15.211-11.157 40.436-11.157 40.436S96 443.824 113.604 437.53c17.603-6.29 31.744-8.467 28.63-18.703-3.113-10.238-28.156-9.035-42.126 6.178zM153.513 415.077c3.309-2.94-1.477-12.149-9.613-14.768-8.137-2.619-17.131 2.804-17.131 2.804s9.346-1.091 14.76 4.438c5.408 5.527 8.674 10.468 11.984 7.526zM42.946 475.344c-4.81-.209-8.042 10.593-3.674 18.791 4.366 8.197 15.483 10.771 15.483 10.771s-8.117-6.218-8.156-14.626c-.04-8.403 1.151-14.725-3.653-14.936zM239.854 575.257c-1.265-1.833-4.042-2.11-6.196-.62-5.126 3.542-10.193 11.947-10.193 11.947s9.43-1.61 14.781-5.31c2.157-1.488 2.879-4.184 1.608-6.017z"/><path d="M161.302 537.483a29.436 29.436 0 0 0-9.762-4.138c-4.885-2.09-11.629-3.924-19.211-4.68-5.579-1.819-15.781-6.33-25.58-16.853-10.246-11.004-20.218-30.984-23.108-50.681-6.177-42.048 19.324-58.293 42.245-64.426 21.797-5.829 54.977 3.675 55.027 29.427.026 13.555-18.877 16.102-22.287 4.578-1.963-6.63 1.846-12.487 5.11-14.461 0 0-9.573-.355-12.301 6.654-4.845 12.463 5.853 25.15 17.815 24.139 16.263-1.377 22.927-16.113 15.753-32.879-5.295-12.385-16.146-20.547-29.54-23.887 14.502 2.832 34.088 10.268 41.998 29.733 0 0 .398 13.002-3.188 24.226-3.587 11.223-.783 36.744 34.178 41.764 0 0-11.909-11.591-10.07-23.078 1.838-11.485 4.441-24.966-16.916-43.38 0 0 15.602 19.121 7.738 34.06 0 0 5.855-13.706-9.484-34.574 0 0-9.992-33.328-61.516-30.478 0 0 .857-.02 2.36.025-10.898.096-22.602 2.914-33.929 8.731-21.467 11.027-26.549 32.311-27.076 47.959a52.688 52.688 0 0 0-2.25-5.934c-5.599-12.409-18.58-22.144-20.257-35.768-.993-8.061 1.956-20.932 15.915-21.463 13.959-.532 16.895 11.585 16.822 13.032-.076 1.45-1.621 8.339-10.611 5.233-8.985-3.105-4.746-13.405-4.746-13.405-12.014 6.829-5.442 19.683 1.576 22.006 7.021 2.322 16.889.727 21.063-9.958 4.176-10.689-5.002-26.4-21.736-26.49-19.257-.102-27.691 17.098-27.012 29.49.896 16.355 16.998 25.309 24.485 37.288 3.456 5.529 5.59 10.72 6.912 14.98.233 3.351.611 6.068.913 7.832 1.58 9.219 12.897 56.606 49.256 66.356-11.295-.754-24.129.971-35.326 7.752-10.324 6.251-21.655 19.582-32.6 12.25-6.107-4.095-2.308-14.56 5.291-15.712 7.342-1.107 10.267 8.332 10.267 8.332 6.054-6.954.999-18.846-12.095-20.094-21.9-2.088-30.018 26.805-10.381 38.838 15.011 9.2 29.346-1.94 48.949-14.789 7.196-4.719 15.959-7.33 24.171-8.752-10.167 4.582-18.49 12.778-21.268 21.024-5.627 16.705 2.175 42.266 24.104 51.438 21.932 9.171 41.832-10.428 40.707-26.687-1.122-16.259-13.825-22.607-24.326-22.439-10.502.168-24.866 14.81-11.477 29.163 0 0-1.379-15.762 12.125-16.156 13.504-.396 12.676 9.6 12.162 11.593-.516 1.998-9.635 17.177-28.334 10.531-18.697-6.645-18.299-25.893-12.473-35.848 5.828-9.955 23.402-19.818 39.865-14.691 16.459 5.127 16.279 28.876 16.279 28.876s6.172-22.2-14.226-35.609z"/><path d="M179.603 570.3c3.4-1.818 19.156-11.788 12.652-37.576-5.498-21.793-21.986-30.548-25.994-44.199-4.709-16.04-1.088-28.434 8.548-27.604 5.332.459 9.53 6.99 7.554 14.393 0 0 3.366-2.567 3.971-6.635.645-4.349-1.213-11.699-7.393-13.81-20.451-6.993-30.403 19.515-19.045 37.604 10.558 16.806 24.615 30.63 27.343 42.211 3.542 15.027 2.821 25.201-5.188 33.209 4.75-5.232 10.418-15.181 3.49-28.971-10.588-21.082-32.658-11.753-43.58-21.837-10.924-10.086 7.148-19.195 9.398-19.43 0 0-25.721-3.698-28.095 12.035-2.37 15.73 20.968 18.385 33.583 21.76 6.735 1.802 35.482 2.773 20.439 40.658.001.001.959-.618 2.317-1.808zM54.273 508.657s-.693-.016-1.895.022c1.217.005 1.895-.022 1.895-.022zM37.449 550.278s-4.82 9.211 13.797 26.607c0 0-16.175-10.126-15.029-28.618 0 0-3.6-24.117 16.226-29.122 18.204-4.602 25.216 4.819 26.808 7.512-1.758-3.045-9.841-14.837-27.286-10.018-23.409 6.463-17.257 32.616-17.257 32.616s-13.572 22.638 5.954 38.299c9.442 7.573 20.183 8.905 25.077 22.694 0 0 12.794-18.725-.965-37.009-9.651-12.825-20.909-11.91-27.325-22.961z"/><path d="M79.25 526.657c.254.438.376.696.376.696s-.122-.264-.376-.696zM257.288 507.475c1.329-10.489-7.85-23.521-23.337-21.18-11.016 1.665-25.393 7.468-18.605 35.272 6.783 27.805-6.962 38.032-6.962 38.032 7.054-7.197 8.153-19.939 1.529-36.242-6.624-16.3 3.696-25.471 3.696-25.471-29.499 10.771-16.296 27.709-16.359 46.376-.085 26.03-22.004 32.831-22.004 32.831 51.285-4.355 59.51-33.292 50.413-53.362-9.095-20.07 4.79-24.897 8.537-25.686 5.34-1.126 10.63 2.747 10.436 7.749-.207 5.496-4.068 8.967-10.061 8.087-6.474-.948-8.278-7.397-8.278-7.397-3.318 9.225 4.867 17.205 12.869 16.853 6.501-.289 16.795-5.37 18.126-15.862zM238.489 481.33c11.953 6.093 19.263-1.601 17.56-7.864-2.041-7.516-11.688-7.842-17.682-8.889-5.988-1.046-12.695-6.848-14.663-11.112 0 0 2.833 21.772 14.785 27.865z"/><path d="M267.888 462.055s-24.439-7.939-27.313-24.461c0 0 23.45 16.218 35.049-6.23 9.137-17.679-11.459-37.59-28.018-30.216 0 0 17.634 2.009 14.863 17.865-2.354 13.48-19.424 10.756-25.004.557-8.381-15.316-18.51-31.394-55.811-24.682 0 0 22.622 2.768 36.003 32.026 10.327 22.584 15.203 38.623 50.231 35.141zM18.84 488.843c-2.639-4.141-6.06-10.597-8.61-10.769-2.552-.174-7.252 3.859-.713 11.671 6.541 7.814 22.084 10.444 22.084 10.444-4.464-2.278-10.121-7.209-12.761-11.346zM128.711 459.086c-5.311-8.373-21.521-8.053-26.961 11.706-5.441 19.756 16.202 45.382 16.202 45.382-2.786-6.613-2.424-20.155 2.568-27.988 4.995-7.839 14.564-19.057 8.191-29.1zM92.828 501.453s-12.172-10.092-15.76-31.121c-3.588-21.027-5.027-28.79-23.408-44.433-18.377-15.643-16.568-23.379-15.236-33.869 0 0-21.631 16.584-4.086 43.221 0 0-18.682-.971-27.102 13.291-7.348 12.443 2.04 27.017 12.024 29.095 15.939 3.314 24.308-7.564 20.9-19.341 0 0-2.961 9.706-11.824 9.409-9.746-.325-14.181-8.859-8.623-16.068 4.152-5.385 11.55-6.411 18.791-5.354 8.221 1.2 18.445 7.143 23.841 20.935 5.391 13.794 9.543 26.323 30.483 34.235zM98.041 368.329c3.708-3.063-1.049-7.391-6.081-14.123-5.035-6.734-2.301-16.587-2.301-16.587s-7.322 8.753-5.869 17.926c1.451 9.173 10.539 15.848 14.251 12.784zM296.591 492.188c13.223-1.82 24.817 9.543 24.817 9.543s-6.54-16.9-20.399-21.929c-13.865-5.023-30.12 2.472-28.715 9.982 1.405 7.508 11.075 4.225 24.297 2.404z"/><path d="M276.466 589.462c9.24.858 15.299 3.174 21.02 10.333 0 0 3.434-25.349-15.063-39.988-12.658-10.021-23.128-8.804-25.539-23.085 0 0-16.111 27.861 11.447 37.571 0 0-32.07-5.479-8.272-44.384 0 0 19.487-41.417 60.44-26.817 0 0-36.423-25.07-66.006 32.355 0 0-15.422 18.94-7.545 38.328 5.587 13.747 20.278 14.823 29.518 15.687zM293.902 471.147c6.188 2 14.395 7.601 18.812 12.561 0 0-8.572-19.04-20.773-24.811-12.196-5.77-15.793 1.604-14.718 4.814 1.074 3.211 10.49 5.438 16.679 7.436zM335.642 477.577c11.303-7.097 20.824-10.786 17.078-17.447-3.743-6.659-21.021-1.964-28.416 10.791-7.396 12.758-1.552 29.911-1.552 29.911s1.585-16.157 12.89-23.255zM335.921 539.952c4.516.978 9.328-8.707 6.533-17.17-2.797-8.466-12.888-12.709-12.888-12.709s6.661 7.202 5.331 15.159c-1.331 7.954-3.487 13.74 1.024 14.72zM417.626 524.529c-1.607-4.329-7.03-1.375-14.716 1.063-7.69 2.438-15.761-3.141-15.761-3.141s5.627 9.398 14.399 10.968c8.772 1.57 17.684-4.562 16.078-8.89zM435.187 578.053c1.408-8.33-9.883-8.609-24.301-11.766-14.414-3.156-22.115-19.373-22.115-19.373s.34 20.034 12.807 30.537c12.469 10.509 32.201 8.931 33.609.602zM324.191 459.722c3.46-5.505 9.246-13.259 8.01-16.412-1.24-3.15-8.733-6.492-14.377 5.763-5.645 12.258.016 32.356.016 32.356.197-6.634 2.89-16.198 6.351-21.707zM297.429 438.765c-2.836 1.178-3.579 5.874-1.661 10.492 4.761 11.466 16.244 24.621 16.244 24.621s-1.411-17.898-5.975-28.887c-1.916-4.616-5.772-7.403-8.608-6.226zM265.918 477.9c6.501-.032 15.155-4.111 15.155-4.111s-8.965-3.988-15.194-3.957c-2.625.012-4.738 1.831-4.727 4.058.011 2.228 2.142 4.027 4.766 4.01zM350.262 445.077c-1.196-1.88-3.957-2.267-6.171-.856-5.485 3.495-10.634 11.56-10.634 11.56s9.716-1.407 14.97-4.752c2.212-1.408 3.031-4.075 1.835-5.952zM277.64 446.77c5.035 4.121 14.3 6.497 14.3 6.497s-4.364-8.788-9.186-12.738c-2.026-1.66-4.815-1.608-6.226.114-1.415 1.723-.915 4.466 1.112 6.127zM316.237 427.986c-2.184-.447-4.382 1.272-4.905 3.836-1.298 6.372.911 15.681.911 15.681s5.748-7.957 6.995-14.061c.526-2.57-.819-5.012-3.001-5.456zM138.529 378.722s21.707 15.831 36.76-3.227c11.192-14.175 3.525-26.181 1.385-29.018 1.878 2.545 7.773 12.652-3.51 27.601-12.313 16.324-33.137 3.638-33.137 3.638-17.486-6.131-20.533-24.966-20.533-24.966 8.799 23.91 19.156 23.046 19.156 23.046-7.688-10.204-2.472-20.224-10.539-34.098-11.504-19.782-33.729-15.266-33.729-15.266 10.804 9.866 7.859 20.279 11.169 31.924 6.845 24.079 32.978 20.366 32.978 20.366z"/><path d="M419.492 455.347c-10.183-2.848-18.865 4.66-21.656 10.538-3.436 7.236.738 17.88 10.527 18.406 0 0-5.24-4.17-3.602-10.503 1.519-5.863 6.217-8.073 11.361-6.13 4.684 1.768 6.199 8.146 3.088 12.628-2.184 3.146-12.023 14.064-26.986-2.112-14.959-16.182-44.816-19.843-68.754 25.721 0 0 14.779-17.555 38.8-7.519 17.224 7.193 27.702 25.94 49.089 2.941 0 0-12.461 5.947-24.906-6.489-12.447-12.438-24.617-16.375-33.99-12.672 0 0 14.765-8.69 37.75 8.362 22.982 17.057 33.918 6.06 39.73-3.44 8.174-13.362-.268-26.881-10.451-29.731z"/><path d="M427.677 535.8c-3.982-1.023-7.657 1.079-7.657 1.079 7.589 1.059 11.976 7.464 10.329 12.553-2.98 9.201-15.807 7.722-28.758-2.846-11.022-8.998-12.686-27.591-30.631-41.126-21.234-16.012-36.542-5.365-39.537-2.939-1.626.79-2.568 1.433-2.568 1.433 40.754.857 30.481 27.723 29.523 34.629-1.789 12.938-8.41 35.472 7.006 39.4 15.418 3.923 22.004-21.213 22.004-21.213-1.09 1.983-16.508 15.096-21.556 1.112-5.049-13.981 12.122-30.694-3.19-48.643-10.239-12.002-21.885-10.315-28.483-7.881 10.658-4.539 20.405-1.265 33.047 7.961 9.611 7.017 16.889 25.34 28.273 41.596 12.256 17.494 40.547 18.623 42.051-2.938.454-6.515-5.595-11.085-9.853-12.177z"/><path d="M457.194 645.118c-11.468-.304-16.771 8.169-17.359 15.538-.587 7.371 8.706 18.419 19.665 10.003 0 0-11.137-.095-10.51-9.581.633-9.492 7.582-8.24 8.945-7.743 1.363.496 11.389 7.905 5.475 20.561-5.915 12.657-18.918 10.374-25.959 6.327-11.904-6.838-15.831-22.581-25.091-32.563a52.452 52.452 0 0 0-4.578-4.366c14.622 5.588 36.206 9.16 54.694-6.328 9.746-8.164 16.883-17.836 21.207-27.822a47.928 47.928 0 0 1-.875 2.135c22.647-46.369-4.182-68.523-4.182-68.523-13.27-22.243-28.174-22.171-28.174-22.171 16.819-1.441 28.379 20.362 28.379 20.362-8.671-26.837-22.104-29.671-33.402-32.44-11.299-2.77-17.352-18.246-17.352-18.246-8.958 34.165 13.471 46.662 25.205 47.719 11.734 1.056 23.563 6.475 23.563 6.475 14.855 14.845 14.103 35.769 11.082 50.231 2.121-13.634-1.186-26.795-10.537-36.481-12.662-13.121-28.83-12.708-36.414 1.743-5.581 10.626 1.954 25.413 15.32 25.792 7.517.209 10.912-8.75 10.912-8.75-3.09 2.242-9.967 3.475-15.313-.91-9.296-7.62.395-24.047 12.879-18.756 23.709 10.05 19.576 44.316 5.736 62.137-14.558 18.738-39.432 35.926-75.779 13.896-17.024-10.314-31.563-27.266-37.721-40.982-5.891-13.12-6.082-24.274-5.592-30.12 2.25-7.281 3.18-14.208 3.152-19.52a29.457 29.457 0 0 0-.021-10.6c-4.431-24.005-27.288-26.944-27.288-26.944s21.955 9.06 20.283 26.217c-1.67 17.161-17.588 29.523-29.025 31.028-11.436 1.5-29.326-5.612-28.188-25.423 1.144-19.812 18.674-22.317 20.715-22.015 2.036.303 11.568 3.419 5.957 15.709-5.609 12.29-19.6 4.896-19.6 4.896 8.027 17.915 27.098 10.366 31.332.755 4.232-9.609 3.319-23.781-11.226-31.132-14.544-7.354-40.335 3.368-40.405 27.141-.067 23.77 20.454 40.889 38.033 42.194 8.679.643 19.465-3.843 27.637-11.432-4.501 7.015-10.312 14.076-17.455 18.874-19.458 13.07-35.289 21.954-32.644 39.359 3.456 22.767 33.233 26.513 39.819 5.523 3.938-12.55-5.057-21.828-13.816-18.951 0 0 7.563 6.362 3.687 12.696-4.01 6.554-15.132 5.989-16.53-1.228-2.506-12.936 14.18-18.195 23.949-25.28 10.602-7.683 17.176-18.841 20.869-29.543-5.142 37.291 34.127 66.133 42.008 71.171a80.174 80.174 0 0 0 6.872 3.891c3.409 2.873 7.359 6.854 11.109 12.182 8.129 11.552 10.122 29.868 24.847 37.048 11.154 5.439 30.279 4.352 37.665-13.433 6.424-15.455-4.489-30.015-15.96-30.32zM158.562 360.531c-8.341 4.678-15.285 6.983-12.845 11.88 2.448 4.899 14.979 2.15 20.722-6.718 5.746-8.869 2.171-21.351 2.171-21.351s-1.705 11.509-10.048 16.189zM147.23 336.913c-8.191-5.307-13.576-10.481-16.834-5.948-3.263 4.539 5.179 14.548 15.918 15.518 10.74.971 20.312-8.192 20.312-8.192s-11.203 3.93-19.396-1.378zM12.626 527.334c9.891-16.479 32.996-18.438 39.752-18.654-8.222-.034-41.239-1.579-58.928-23.494-20.306-25.155-.475-35.505-.475-35.505s-33.65 11.916-16.084 43.21C-13.246 510.467.719 514.995.719 514.995s-21.52 34.832 18.457 38.14c.001 0-18.201-6.389-6.55-25.801zM17.231 125.843s14.433 10.958 28.869 7.969c14.44-2.994 24.348-17.903 19.214-23.559-5.136-5.656-11.646 2.212-21.948 10.698-10.303 8.484-26.135 4.892-26.135 4.892zM64.788 146.854c13.41-1.486 12.605-9.649 10.006-11.819-2.6-2.17-11.783.875-18.103 2.419-6.315 1.543-16.241 1.08-22.602-.827 0 0 17.285 11.715 30.699 10.227zM17.782 153.872c-5.9 11.972-12.071 20.108-5.389 23.813 6.68 3.708 18.927-9.354 18.534-24.091-.396-14.743-14.368-26.283-14.368-26.283s7.126 14.591 1.223 26.561zM-6.58 112.909c-3.039-7.471-4.238-13.529-8.592-11.995-4.358 1.535-3.377 12.304 3.443 18.044 6.819 5.74 17.637 4.062 17.637 4.062s-9.447-2.641-12.488-10.111zM36.899 163.068c-.061 6.503-.92 16.139 1.787 18.174 2.707 2.032 10.841.948 9.218-12.447-1.625-13.397-16.984-27.54-16.984-27.54 3.311 5.751 6.034 15.306 5.979 21.813zM60.08 166.087c4.053 2.924 8.797 3.277 10.593.787 1.799-2.491-.031-6.879-4.088-9.804-10.066-7.266-26.744-12.442-26.744-12.442s10.59 14.5 20.239 21.459zM20.822 183.182c-1.145 2.359-.443 5.058 1.559 6.03 2.007.973 4.559-.146 5.703-2.508 2.838-5.853 2.99-15.42 2.99-15.42s-7.533 6.294-10.252 11.898zM87.484 154.311c.302-2.209-1.563-4.282-4.16-4.632-6.448-.869-15.581 1.968-15.581 1.968s8.323 5.191 14.5 6.027c2.596.351 4.944-1.157 5.241-3.363zM60.316 185.916c2.093-.765 3.063-3.381 2.163-5.839-2.237-6.106-8.999-12.872-8.999-12.872s-.721 9.79 1.42 15.64c.898 2.466 3.323 3.837 5.416 3.071z"/><path d="M-29.037 196.449c-.872-7.964-10.007-14.835-18.618-10.148 0 0 6.65.802 8.576 7.052 1.783 5.789-1.057 10.136-6.458 11.179-4.915.951-9.551-3.685-9.252-9.132.207-3.824 2.858-18.282 24.084-12.356 21.224 5.931 48.563-6.613 45.045-57.962 0 0-3.376 22.698-29.089 26.752-18.438 2.91-37.193-7.555-43.338 23.243 0 0 7.489-11.6 24.608-7.538 17.122 4.061 29.55 1.029 35.587-7.04 0 0-8.012 15.144-36.526 12.683-28.515-2.467-32.056 12.63-32.021 23.768.05 15.664 14.328 22.747 24.493 19.831 10.162-2.918 13.616-13.864 12.909-20.332z"/><path d="M-114.059 164.152c-10.545 5.256-23.457 6.847-23.457 6.847-20.435-4.848-30.769-23.059-35.783-36.956 5.347 12.72 15.065 22.191 28.107 25.535 17.663 4.529 31.211-4.302 30.087-20.585-.821-11.975-14.991-20.611-26.571-13.924-6.511 3.766-4.7 13.173-4.7 13.173 1.454-3.528 6.662-8.184 13.513-7.257 11.913 1.613 12.277 20.681-1.126 22.726-25.456 3.878-39.913-27.463-37.476-49.894 2.566-23.59 14.73-51.271 57.231-51.58 19.903-.149 41.173 6.659 53.608 15.106 11.899 8.081 17.913 17.479 20.562 22.713 1.903 7.378 4.743 13.761 7.554 18.27a29.44 29.44 0 0 0 5.577 9.013c16.363 18.117 37.367 8.628 37.367 8.628s-23.445 3.801-31.021-11.682c-7.58-15.485-.511-34.361 8.437-41.64 8.948-7.276 27.913-10.605 37.332 6.86 9.42 17.468-4.191 28.794-6.088 29.608-1.894.81-11.644 3.155-13.313-10.249C4.11 85.457 19.9 84.413 19.9 84.413 3.67 73.371-8.607 89.8-7.171 100.204c1.435 10.403 9.647 21.99 25.887 20.618 16.24-1.366 32.574-24.025 20.166-44.3C26.47 56.249.019 52.44-15.633 60.548c-7.726 4.003-14.555 13.478-17.533 24.224.152-8.333 1.397-17.389 4.963-25.219 9.708-21.336 18.528-37.202 7.146-50.633-14.885-17.574-42.203-5.142-36.8 16.182 3.23 12.751 15.756 15.932 21.704 8.888 0 0-9.775-1.45-9.799-8.874-.021-7.686 9.742-13.037 14.718-7.625 8.919 9.699-2.529 22.928-7.13 34.085-4.996 12.102-4.741 25.052-2.271 36.1-15.18-34.449-63.744-38.406-73.096-38.561-1.789-.031-4.535.011-7.886.293-4.409-.658-9.864-1.974-15.853-4.545-12.98-5.571-24.286-20.12-40.588-18.51-12.352 1.22-28.062 12.175-25.022 31.192 2.641 16.525 19.569 23.199 29.495 17.442 9.922-5.758 9.994-15.753 6.63-22.335-3.367-6.583-17.074-11.114-21.989 1.797 0 0 9.532-5.759 13.973 2.646 4.44 8.412-2.133 10.992-3.555 11.286-1.421.292-13.843-.76-15.445-14.635-1.604-13.879 10.663-18.756 18.781-19.005 13.723-.421 25.324 10.924 38.442 14.564a52.641 52.641 0 0 0 6.205 1.319c-15.384 2.908-35.643 11.178-43.265 34.073-4.015 12.065-5.019 24.045-3.462 34.818-.267-1.451-.374-2.283-.374-2.283 5.039 51.355 39.502 56.147 39.502 56.147 22.965 11.976 35.616 4.098 35.616 4.098-13.563 10.05-34.841-2.451-34.841-2.451 21.458 18.3 34.381 13.667 45.453 10.1 11.072-3.57 24.344 6.433 24.344 6.433"/><path d="M-105.891 147.378c3.029 5.785 10.576 6.501 14.775 5.199 3.928-1.217 5.953-4.934 5.953-4.934-7.016 3.079-14.11-.073-15.377-5.271-2.289-9.398 9.406-14.865 25.976-12.66 14.105 1.879 25.272 16.838 47.65 18.949 26.477 2.495 33.928-14.601 35.203-18.238.972-1.525 1.438-2.566 1.438-2.566-35.149 20.648-40.494-7.615-43.301-13.998-5.263-11.953-11.444-34.612-26.632-29.87-15.183 4.748-7.606 29.602-7.606 29.602-.113-2.261 6.137-21.51 17.769-12.252 11.632 9.257 5.778 32.491 28.231 39.74 14.683 4.741 23.648-2.376 28.096-7.867-6.691 9.133-16.636 11.399-32.024 10.193-11.864-.933-27.671-12.716-45.89-20.584-19.613-8.468-44.289 5.41-34.261 24.557zM-8.65 410.995c-7.159-3.594-10.412-14.553-3.017-20.988 0 0-1.568 6.512 3.617 10.497 4.804 3.688 9.868 2.544 12.73-2.153 2.605-4.273-.122-10.236-5.331-11.855-3.657-1.141-18.131-3.698-19.982 18.261-1.845 21.959-23.138 43.207-70.034 21.998 0 0 22.45 4.753 35.22-17.932 9.158-16.265 5.893-37.491 36.899-32.507 0 0-13.483 2.972-15.648 20.432-2.167 17.465-9.344 28.053-19.012 30.895 0 0 16.987-2.225 24.627-29.807 7.634-27.585 23.018-25.639 33.445-21.721 14.662 5.511 16.319 21.362 10.042 29.872-6.277 8.508-17.74 7.926-23.556 5.008zM11.25 373.993c-7.463-11.148.682-31.537.682-31.537-.365 4.682 2.663 13.019 7.383 16.854 4.721 3.837 12.983 8.824 11.101 16.383-1.568 6.297-11.702 9.448-19.166-1.7z"/><path d="M7.787 300.694c3.214 25.699-8.582 34.81-8.582 34.81 14.15-9.207 9.855-33.51 9.855-33.51 9.666 26.494.817 36.989-6.389 46.122-7.208 9.132-2.464 25.059-2.464 25.059-28.073-21.432-18.072-45.079-9.468-53.129 8.604-8.05 14.599-19.595 14.599-19.595 2.585-20.842-10.877-36.88-22.152-46.427 10.056 9.446 15.542 21.859 14.127 35.248-1.916 18.134-14.919 27.751-29.788 21.019-10.936-4.947-14.087-21.241-3.78-29.76 5.8-4.788 13.985.189 13.985.189-3.813.132-9.995 3.389-11.515 10.132-2.644 11.727 15.099 18.722 21.69 6.873C.42 275.221-23.91 250.741-45.782 245.2c-23.004-5.824-53.188-4.08-68.303 35.643-7.082 18.604-8.121 40.912-4.542 55.514 3.423 13.969 10.132 22.885 14.114 27.191 6.25 4.357 11.242 9.246 14.487 13.452a29.437 29.437 0 0 1 6.501 8.372c11.271 21.654-4.947 38.028-4.947 38.028s11.74-20.646-.128-33.147c-11.868-12.506-32.024-12.465-41.968-6.617-9.94 5.85-19.676 22.46-6.594 37.381 13.085 14.92 28.448 6.115 29.872 4.621 1.42-1.492 7.019-9.812-4.962-16.051-11.981-6.242-18.468 8.191-18.468 8.191-4.686-19.063 14.992-24.838 24.242-19.864 9.249 4.976 17.243 16.714 10.294 31.454-6.945 14.742-33.879 22.147-48.553 3.445-14.67-18.702-9.014-44.82 4.045-56.662 6.447-5.844 17.709-8.939 28.818-7.98-7.862-2.764-16.784-4.758-25.366-4.147-23.383 1.657-41.328 4.388-49.945-10.964-11.277-20.079 9.901-41.345 28.002-28.843 10.823 7.475 9.436 20.323.759 23.44 0 0 2.051-9.667-4.899-12.278-7.194-2.701-15.616 4.583-12.28 11.133 5.979 11.742 22.37 5.628 34.432 5.208 13.084-.462 25.132 4.295 34.625 10.463-26.99-26.243-13.759-73.137-10.642-81.955.595-1.689 1.592-4.247 3.024-7.288.922-4.363 1.591-9.934 1.271-16.444-.693-14.109-10.386-29.779-3.19-44.495 5.452-11.149 21.199-22.053 37.962-12.571 14.566 8.239 14.915 26.432 6.058 33.726-8.856 7.291-18.249 3.872-23.244-1.578-4.996-5.451-4.461-19.878 9.354-19.98 0 0-8.723 6.924-2.394 14.018 6.334 7.095 11.045 1.835 11.816.605.769-1.229 4.116-13.237-8.328-19.581-12.448-6.342-21.299 3.453-24.362 10.974-5.182 12.714 1.404 27.545.239 41.108a52.356 52.356 0 0 1-.928 6.275c8.092-13.401 22.909-29.504 47.024-28.661 12.708.445 24.286 3.684 33.839 8.901-1.267-.757-2.009-1.148-2.009-1.148 46.374 22.636 38.843 56.605 38.843 56.605z"/><path d="M34.401 336.832c-5.548 15.823 11.914 34.674 11.914 34.674-32.276-14.044-28.712-30.425-26.712-55.176 2.586-32.07-15.815-45.518-15.815-45.518 35.839 12.331 36.84 31.308 36.688 48.766-.101 11.629 13.47 22.331 22.103 11.709 10.148-12.492-4.265-22.845-4.265-22.845 18.05 1.638 26.32 29.063 9.722 40.043-21.074 13.938-33.635-11.653-33.635-11.653zM15.403 238.202c.457 17.452 2.12 36.383 38.366 47.455 0 0-18.856-12.799-17.39-44.938 1.134-24.806 4.123-41.3-28.624-54.209 0 0 18.11 18.227 13.118 34.237 0 0-13.449-25.139-34.022-10.472-16.206 11.55-6.982 38.673 11.113 39.68 0 0-14.766-9.846-5.058-22.682 8.255-10.916 22.193-.695 22.497 10.929z"/></g><path fill="#DB107B" d="M1080.404 556.08c-.781 2.136-2.295 3.158-3.787 4.219-1.524 1.084-3.37 1.338-5.114 2.165-5.121.102-10.322.056-15.108.027-1.311-.423-2.058-.932-2.593-1.7-.217-.312-.408-.694-.45-1.063-.057-.497.041-1.011.063-1.365.881-1.147 1.97-1.552 3.124-1.805 1.857-.406 3.39-1.281 4.466-2.953.093-.33.263-.699.296-1.079.692-7.82-1.213-14.979-5.621-21.45-2.711-3.981-5.746-7.722-8.907-11.353-.925-1.063-1.81-2.257-3.358-2.527-.7-.055-1.264.206-1.751.781-2.634 6.307-5.082 12.739-6.809 19.422-.585 2.261-1.166 4.529-1.195 6.895-.021 1.694-.001 3.357.457 5.027.445 1.624.771 3.312.883 4.99.207 3.11-.449 5.959-3.293 7.987-.551.061-1.194.192-1.837.193-10.808.013-21.615.01-32.423.006-.389 0-.778-.057-1.146-.085-1.001-.355-2.003-.65-2.955-1.061-1.328-.573-2.491-1.395-3.404-2.547-.387-.49-.465-.661-.593-2.18.208-.657.681-1.108 1.264-1.411.689-.357 1.421-.632 2.112-.933 4.876.095 9.245-1.41 13.373-3.819 2.023-1.181 4.042-2.359 5.972-3.69 2.183-1.506 3.328-3.586 3.614-6.191.441-4.02.671-8.039.219-12.078-.145-1.292-.176-2.597-.228-3.897-.052-1.302-.105-2.6-.497-3.693-.429-.601-.937-.659-1.449-.769-2.429-.519-4.874-.775-7.363-.71-1.429.037-2.864-.038-4.246-.509-.364-.124-.772-.211-1.15-.184-2.642.194-5.098-.984-7.706-1.013-3.282-.825-6.517-1.788-9.523-3.386-1.263-.671-2.54-1.324-3.759-2.07-3.231-1.978-6.673-3.488-10.195-4.862-2.175-.849-4.259-1.931-5.876-2.675-1.731-1.306-2.582-2.621-3.436-3.929-.569-.871-1.093-1.772-1.642-2.657-1.469-2.37-3.463-4.216-5.777-5.729-1.196-.782-2.4-1.566-3.662-2.232-3.468-1.832-6.53-4.27-9.763-6.452-.293-.198-.454-.591-.744-.985 1.312-2.101 2.55-4.223 3.923-6.254 4.602-6.804 8.449-14.037 12.235-21.307 4.926-9.461 9.735-18.98 14.211-28.662 3.493-7.555 6.894-15.153 10.326-22.736.265-.585.449-1.207.622-1.679-.151-.703-.462-1.111-.946-1.356-1.393-.704-2.797-1.387-3.891-1.928-2.51-1.43-3.371-3.975-5.081-5.43-.375-.091-.509-.169-.623-.146-4.388.896-8.216-.702-11.831-2.85-1.999-1.188-3.833-2.691-5.613-4.203a159.64 159.64 0 0 1-7.234-6.553c-2.279-2.189-4.763-4.007-7.73-5.146-.969-.372-1.888-.874-2.823-1.331-1.758-.859-3.353-1.89-4.774-3.308-2.299-2.293-4.822-4.361-7.132-6.417-.63-1.259-.439-2.154.65-2.81.891-.374 1.78-.291 2.659.033 1.706.63 3.408 1.271 5.113 1.908l1.073-.357c.149-.752-.132-1.335-.471-1.896-1.615-2.673-3.237-5.342-4.854-8.013-.874-1.444-1.718-2.902-2.144-4.243-.026-1.179.449-1.766 1.208-2.343l2.082.344c.179-.246.406-.426.449-.642.125-.632.095-1.302.28-1.911.194-.638.653-1.11 1.486-1.13 1.658 1.353 3.391 2.71 5.054 4.148.881.763 1.7 1.617 2.443 2.517 2.905 3.519 5.534 7.228 7.595 11.317a75.499 75.499 0 0 0 1.827 3.444c.318.557.756 1.047 1.13 1.554 2.119 1.126 4.376 1.775 6.547 2.63 2.656 1.046 5.331 2.044 7.996 3.07.508.195 1.002.216 1.505-.01.106-.22.315-.449.304-.667-.048-.909-.093-1.827-.265-2.718-.422-2.18-1.026-4.301-2.409-6.11-.711-.929-1.431-1.853-2.095-2.816-.811-1.175-1.648-2.343-2.329-3.593-1.345-2.467-1.859-5.121-1.346-8.33 1.104-4.777 3.715-8.7 9.078-9.873 1.005-.857 1.317-1.82 1.499-2.871.333-1.919.591-3.863 1.101-5.736.455-1.669.546-3.332.503-5.025-.046-1.822-.134-3.643.183-5.489.539-1.453 1.268-2.826 2.508-3.847.389-.32.883-.535 1.36-.717.208-.08.493.043.851.088.29 1.075.602 2.186.886 3.305.096.376.141.769.169 1.157.028.388.006.78.006 1.081-1.267 3.83-1.267 3.83-3.281 6.179-1.351 4.391-1.62 5.66-2.413 11.377.115.566.48.903.961 1.155.34.179.661.393.892.531 1.359 2.642 2.65 5.182 3.967 7.707 1.273 2.441 2.101 4.97 2.4 7.756.374 3.477.934 6.951 2.159 10.277.64 1.736 1.491 3.323 2.71 4.7.325.367.796.605 1.111.837 1.55-.236 1.932-1.433 2.646-2.487.05-.943.129-1.978.156-3.014.041-1.56.119-3.086.518-4.632 1.018-3.946 3.117-7.087 6.352-9.539 1.482-1.124 3.127-1.877 4.875-2.39 1.511-.444 2.929-1.061 4.316-1.786.948-.495 1.713-1.168 2.249-2.095.642-1.466.218-2.794-.516-4.082-1.327-1.742-3.127-2.657-5.23-3.153-1.781-.42-3.564-.747-5.391-.843-2.73-.142-5.459-.299-8.262-.454-2.057-.631-4.142-1.323-5.775-3.039l-.155-4.619c-.715-2.031-2.244-3.095-2.683-5.01l.59-4.64c.311-.345.742-.818 1.167-1.296.337-.38.667-.766.883-1.013.213-1.4-1.089-2.332-.454-3.787.868-1.444 2.889-1.843 4.473-3.879.15-.204-.126-1.171.084-2.128l1.048-1.668c-.688-5.074-.341-10.277-.581-15.333-.3-.802-.878-1.069-1.512-1.271-.839-.268-1.208-.911-1.412-1.893 1.655-4.512 4.292-8.506 8.34-11.341 3.842-2.692 8.183-3.975 12.934-3.144 2.303.403 4.592.904 6.862 1.465 1.811.447 3.619.514 5.421.169 5.036-.964 10.125-.877 15.186-.596 6.418.356 12.161 2.667 16.984 6.997 1.741 1.563 3.325 3.296 4.55 5.325.468.775 1.041 1.487 1.483 2.11.973.58 1.859.594 3.018.284.301-.29.788-.71 1.214-1.183a103.48 103.48 0 0 0 2.553-2.944c2.613-3.128 5.899-5.046 10.013-5.599 4.308.548 7.674 2.805 10.525 6.031 2.635 2.981 4.526 6.332 5.464 10.209.122.504.292.997.475 1.617v6.214c-.627 2.467-1.354 4.542-3.264 6.567-.839.664-1.993 1.739-3.299 2.578-3.15 2.022-5.1 4.771-5.567 8.617.266 3.022.266 3.022 1.568 5.4.949 1.541 3.016 1.431 4.137 2.719-2.069 3.032-5.265 4.615-11.376 5.616-.548-.179-1.283-.425-2.022-.659-4.662-1.475-7.147-4.934-8.613-9.363-1.778-5.372-.926-10.541 1.154-15.612.69-1.682 1.545-3.297 2.253-4.973.954-2.259.979-4.553.025-6.829-.417-.994-1.035-1.825-2.148-2.093-1.089-.263-2.063-.028-2.913.924-.817 1.569-.891 3.378-.995 5.207-.307 5.353-1.195 10.602-3.194 15.609-2.281 5.714-5.891 10.38-11.079 13.76-1.749 1.139-3.648 1.98-5.592 2.732-1.572.608-3.184 1.126-4.8 2.004l-.969 1.722c.033.51.015.776.071 1.026.413 1.848 1.573 3.257 2.756 4.65a70.664 70.664 0 0 1 5.998 8.181c2.572 4.097 4.738 8.39 5.875 13.12.758 3.156 1.51 6.316 1.308 9.625-.144 2.354-.733 4.615-1.166 6.907a38.79 38.79 0 0 1-1.657 6.007c-.707 1.954-1.292 3.965-.979 6.1.248 1.061.941 1.843 1.667 2.592 1.72 1.778 3.46 3.537 5.184 5.31 5.748 5.911 10.505 12.552 14.737 19.616 5.494 9.17 10.147 18.76 14.684 28.418 1.658 3.529 3.555 6.946 5.213 10.475 1.827 3.891 3.866 7.665 5.998 11.388 1.81 3.16 3.702 6.277 5.683 9.333 1.342 2.071 2.91 3.99 4.637 5.774a48.436 48.436 0 0 1 3.079 3.526c.916 1.151.874 2.803.015 4.014-.15.212-.308.42-.482.613-2.705 2.99-5.414 5.977-8.12 8.966-.438.483-.866.975-1.004 1.131-2.638 1.604-5.099 2.344-7.618 3.048-4.645 1.298-9.411 1.948-14.111 2.941-.253.054-.498.147-.85.254-.131.268-.485.641-.426.928.579 2.814.602 5.68.869 8.523.134 1.424.256 2.856.527 4.256.142.735.591 1.41.891 2.087 1.765 1.02 3.403 2.096 5.15 2.948 2.605 1.27 4.395 3.187 5.313 5.928.082.246.154.495.24.775.166 1.533.052 3.029-.439 4.574-.668 2.098-1.051 4.289-1.505 6.451-.296 1.415-.324 2.868.077 4.258.742 2.568.476 5.153.411 7.436zM970.253 321.628c.349-.149.811-.196.987-.445.849-1.203 1.163-2.563.849-4.021-.043-.199-.307-.351-.477-.533-1.109.028-1.561.839-1.796 1.712-.292 1.085-.567 2.239.437 3.287z"/><g fill="#DB107B"><path d="M909.765 281.334c.797 3.099.882 5.795-.213 9.341-.871 2.286-2.85 4.787-6.021 6.753-1.134.365-2.609.864-4.099 1.312-1.271.382-2.563.373-3.848.04-2.408-.625-4.716-1.462-6.921-3.525-1.316-1.354-2.695-3.218-3.435-5.493-.871-2.678-.86-5.343.075-8.012 1.025-2.926 2.805-5.256 5.418-6.92 5.976-3.803 12.993-1.859 16.48 2.624 1.031 1.323 1.86 2.802 2.564 3.88zM943.755 269.725c-.36.992-.56 1.613-.808 2.213-1.669 4.036-4.721 6.423-8.926 7.388a5.927 5.927 0 0 1-1.936.131c-3.993-.443-7.243-2.29-9.206-5.784-1.405-2.5-2.011-5.252-1.166-8.263.984-3.508 3.071-5.935 6.17-7.653 2.987-1.655 5.991-1.484 8.98-.074 2.815 1.327 4.859 3.446 6.116 6.3.474 1.078.82 2.191.781 3.396-.026.78-.005 1.561-.005 2.346zM927.021 308.277c-.366-.031-.502-.021-.623-.057-.995-.299-1.986-.606-2.691-.823-2.648-1.215-4.108-3.168-5.319-5.555-.088-.495-.284-1.132-.297-1.773-.028-1.296.044-2.594.068-3.644 2.069-4.391 2.629-4.923 7.181-6.966 1.872-.371 3.607.26 5.337.793.598.184 1.142.61 1.649 1.005.613.479 1.159 1.042 1.933 1.752l1.473 2.908c1.656 5.935-2.551 11.764-8.711 12.36zM953.964 301.343c-4.614-.742-7.228-3.269-8.245-7.792.371-4.088 2.692-6.86 7.08-8.189h2.029c3.815 1.286 6.382 3.553 6.587 8.485l-.741 2.913c-2.332 3.097-2.418 3.155-6.71 4.583zM954.925 312.507c.488-.87.857-1.704 1.38-2.426 1.802-2.488 5.505-1.89 6.779.655.342.684.49 1.465.697 2.11-.96 2.649-.96 2.649-2.894 4.025-3.704.338-4.623-.292-5.962-4.364z"/></g><g fill="#DB107B"><path d="M822.774 249.661c-.202 18.435-6.734 34.26-19.689 47.389-11.306 11.458-28.491 19.552-47.441 19.523-18.99-.029-36.198-8.281-47.362-19.7-12.99-13.288-19.644-29.25-19.514-47.828.128-18.297 6.841-33.991 19.687-47.025 11.377-11.544 28.728-19.643 47.797-19.556 36.548.168 66.813 30.297 66.522 67.197zm-81.174-6.544c-.158-.731-.273-1.081-.304-1.438-.374-4.255-.757-8.509-1.086-12.768-.103-1.336-.18-2.698-.04-4.024.36-3.414.938-6.782 3.212-9.572.136-.167.12-.458.178-.704-.036-.77-.446-1.389-.966-1.903-.424-.419-.968-.718-1.555-1.138-1.419.143-2.764-.76-4.462-.394-.341.277-.858.611-1.266 1.048-.577.619-1.073 1.313-1.569 1.932-.128.815-.274 1.533-.35 2.258-.522 4.998-.432 10 .02 14.993.308 3.401.742 6.791 1.105 10.187.103.968.154 1.942.225 2.874l-1.033 3.215 1.305 3.008c.06.882.141 1.733.174 2.585.287 7.446.249 14.895-.037 22.338a56.52 56.52 0 0 1-1.146 9.438c-.298 1.421-.541 2.854-.788 4.167.857 1.556 1.749 2.84 3.404 3.546l2.845-.548c.375-.661.848-1.252 1.063-1.925.368-1.158.681-2.355.83-3.559.404-3.269.868-6.532.897-9.84.024-2.685.197-5.368.273-8.053.082-2.928.101-5.852-.145-8.782-.204-2.428-.177-4.876-.214-7.316-.005-.34.213-.684.336-1.05l1.153-.78c6.827-.92 12.602-.608 17.14.942.489 1.203.547 2.567.625 3.878.334 5.613 1.421 11.134 1.96 16.722.223 2.31.463 4.612.504 6.933.024 1.345-.008 2.68-.458 3.979-.281.813-.392 1.663-.007 2.736.746 1.22 2.049 2.069 3.487 2.709h2.223c.749-.5 1.463-.964 2.163-1.448.299-.206.57-.453.761-.607l.844-2.948c-.608-2.793-1.212-5.531-1.799-8.272-.459-2.147-.826-4.317-1.365-6.443-.569-2.246-.298-4.605-1.103-6.829-.317-.876-.264-1.948-.155-2.905.21-1.835.063-3.657.03-5.485-.015-.849-.003-1.699-.003-2.303a7530.46 7530.46 0 0 1 1.556-3.11c-.109-.591-.136-1.089-.295-1.542-.754-2.151-.581-4.345-.261-6.522.23-1.565.586-3.119.988-4.65a616.47 616.47 0 0 1 2.802-10.233c.825-2.936 1.68-5.864 2.184-8.878.12-.718.235-1.454.207-2.176-.045-1.181-.631-2.123-1.705-2.628-.757-.357-1.596-.539-2.186-.73-1.274.235-2.016.853-2.635 1.634a10.842 10.842 0 0 0-1.774 3.183c-.562 1.617-1.034 3.258-1.095 4.981-.092 2.573-.575 5.089-1.065 7.604-.187.957-.415 1.907-.636 2.857-.744 3.208-1.493 6.414-2.238 9.621-.166.717-.364 1.412-1.212 1.957-.791.011-1.763.016-2.734.038-3.293.076-6.585.053-9.861.584-1.551.251-3.166.182-4.748.132-.696-.019-1.385-.352-2.198-.576zm57.511 55.019c1.088-1.391 1.046-2.045-.155-5.24-.653-.31-1.187-.015-1.647.386-.978.855-2.24 1.506-2.398 3.067 1.161 1.056 2.61 1.305 4.2 1.787zm-73.645 10.285c1.704-1.482 2.015-2.096 2.409-4.555-.265-.142-.551-.42-.851-.434-1.433-.068-2.842.039-4.13.98.211 1.716 1.26 2.799 2.572 4.009zm-18.237-31.599c-1.366.755-1.749 2.012-2.173 3.277l.649.887c1 .186 1.967.254 2.902-.072.304-.106.531-.43.83-.686l-.339-2.143-1.869-1.263zm95.266-1.409c1.2.348 2.329-.008 3.45-.457.505-.202.746-.549.638-1.272-.625-.985-1.457-1.974-2.485-2.656l-.839.108c-1.415 2.579-1.444 2.734-.764 4.277zm-73.402-1.245c-.252.16-.647.273-.79.527-.586 1.04-1.109 2.117-1.619 3.198-.092.194-.013.469-.013.713.646.861.65.856 1.691 1.259 1.28-.624 1.797-1.734 1.892-3.029-.309-.518-.609-.896-.769-1.326-.152-.406.161-.94-.392-1.342zm59.265-8.559c-.27-.787-.507-1.577-.82-2.337-.122-.297-.413-.524-.628-.785-1.276.238-2.336.695-3.066 1.701.364 1.275.364 1.275 2.769 2.424.994-.27.998-.264 1.745-1.003zm-73.647-51.872c1.026.686 1.968 1.732 3.746 1.471.319-1.313.532-2.56-.007-3.782-.651-.428-1.206-.194-1.721.102-.807.464-1.789.765-2.018 2.209zm53.241-11.478c1.356-.508 1.369-.524 2.605-3.228-.201-.932-.423-1.978-.658-3.021-.023-.104-.116-.203-.199-.281-.073-.069-.177-.105-.267-.155-.495.214-.688.682-.784 1.13-.35 1.628-.652 3.266-.935 4.907-.035.196.153.431.238.648zm-43.943 58.245c.977-.517 1.528-1.413 1.933-2.517l-.49-.787c-1.129-.311-2.173-.525-3.147-.221-.622 1.046-.039 1.758.316 2.495.266.556.61 1.052 1.388 1.03zm26.473 2.646c.318.583.656 1.195.988 1.81.321.594.394 1.382 1.419 1.615.411-1.122.335-2.258.123-3.539-.233-.402-.523-.916-.832-1.418-.052-.085-.186-.12-.283-.179-1.058.296-1.077.285-1.415 1.711zm6.284-34.978l.183-.996c-.585-.754-1.15-1.386-2.105-1.401-.815.342-1.491.817-1.798 1.661-.119.558.09.951.575 1.244.954.211 1.899.118 3.145-.508zm53.627 30.046c.326.436.727.64 1.267.499 1.495-.907 1.49-.914 1.802-2.069-.82-.724-1.689-1.347-2.91-1.162-.748.881-.398 1.817-.159 2.732zm-45.962 55.147c1.074.887 2.21 1.511 3.648.869.425-.319.611-.722.395-1.372l-1.225-1.031c-.997-.041-1.822.024-2.547.566-.104.209-.227.411-.305.63-.034.096.02.224.034.338zm32.04-71.079c-1.065.817-1.065.817-.97 2.684 1.173.593 1.177.599 2.796-.457-.212-1.343-.216-1.343-1.826-2.227zm-4.169-26.408h.948c.617-.701 1.163-1.342.962-2.388-.905-.722-1.893-.601-2.918-.141-.376 1.14.345 1.801 1.008 2.529zm-68.838 19.349c-.642.374-1.177.806-.992 1.672.406.62.977.985 1.864 1.117.86-.459 1.176-1.246.991-2.289-.453-.795-1.168-.614-1.863-.5zm25.09-33.91c-1.427-.312-2.541.422-3.673 1.074-.048.028-.021.186-.031.314.791.612 1.675.864 2.663.639.676-.507 1.518-.907 1.041-2.027zm31.101 90.678c-.258-.733-.703-1.255-1.582-1.444l-.732.453c-.217.795-.407 1.495.095 2.218 1.075.236 1.767-.269 2.219-1.227zm3.295-44.858c-.796-.799-1.67-.628-2.554-.137-.349.194-.473.787-.271 1.286.561.631 1.167 1.168 2.099.781.569-.526.894-1.12.726-1.93zm-80.227.05c-.172-.886-.547-1.581-1.524-1.748-1.2 1.111-1.2 1.111-.676 2.327.844.227 1.65.311 2.2-.579zm42.592 49.089c-1.18.204-2.287.264-2.646 1.681.937.468 1.804.498 2.595-.251.358-.34.551-.762.051-1.43zm64.445-63.579l-.869.467c.155.598.479.83 1.016.71.096-.021.198-.142.242-.242.17-.39.031-.685-.389-.935zm-108.119 3.847l.234-.267-.507-.395-.287.471.56.191zM918.938 165.443c-.607.096-1.198.231-1.658.761-.362 1.027-.446 2.086.101 3.163 1.513.701 2.417-.917 3.961-.953 1.666.947 2.826 2.704 4.128 4.282a56.76 56.76 0 0 1 8.802 14.713c.189.461.314.91.111 1.4-.891.759-2.209-.381-3.159.819.09 1.481.582 2.916 1.576 4.054 1.456.531 1.841-1.234 3.084-1.181 1.368 2.663 1.707 5.598 2.143 8.45a58.97 58.97 0 0 1 .088 17.163 57.159 57.159 0 0 1-4.889 16.427c-2.457 5.232-5.591 10.009-9.439 14.317a58.136 58.136 0 0 1-13.483 11.177c-4.841 2.909-9.966 5.14-15.455 6.483-2.584.632-5.143 1.501-7.903 1.317-.921-1.369-.248-2.919-.665-4.417a6.014 6.014 0 0 0-1.869-2.492c-.498-.164-.962-.231-1.369.266-.214 1.351.659 2.505.891 3.939l-.614 2.517c-.586.648-1.19.759-1.798.812-.607.053-1.22.069-1.829.055-28.937-.62-50.62-20.185-56.66-45.07-1.241-5.114-1.858-10.339-1.599-15.617.721-14.705 5.936-27.545 16.041-38.33.248-.265.552-.479.818-.707 2.837-.423 2.837-.423 4.749-1.57.02-.235.102-.486.045-.701-.122-.459-.316-.898-.464-1.299.124-.283.162-.565.324-.712 3.372-3.062 7.248-5.372 11.288-7.406a55.048 55.048 0 0 1 15.946-5.166c4.329-.706 8.714-1.158 13.129-.812 12.365.968 23.543 5.02 33.307 12.775.756.6 1.389 1.379 2.347 1.705l-.026-.162zm-25.88 8.1c-.122-.221-.193-.485-.365-.634-.639-.557-1.312-1.075-1.867-1.524a51.958 51.958 0 0 0-12.724-.876c-3.61 1.56-3.837 1.688-6.313 3.57l-.692 2.803c.352 1.015.414 1.907 1.258 2.622l2.428.484c1.472-.128 2.551-.81 3.67-.864.598.607.503 1.234.51 1.819.063 5.255-.535 10.465-1.138 15.67-.533 4.598-1.185 9.183-1.774 13.775-.449 3.504-.909 7.007-1.315 10.516-.35 3.026-.699 6.055-.925 9.092-.29 3.889-.452 7.788-.682 11.682-.021.36-.129.715-.196 1.075-1.235 1.307-3.211 1.153-4.707 2.521l-.762 1.258c.1.448.141.817.268 1.154.168.444.404.863.618 1.309.73.291 1.383.703 2.081.801 1.92.27 3.853.39 5.769.781 1.418.289 2.916.089 4.318-.458.676-.264 1.371-.478 2.092-.727l1.69.159c2.918-.474 4.021-2.568 4.865-4.872-.41-1.557-1.38-2.382-2.58-2.832-1.932-.311-3.792.099-5.55-.47-.209-1.605-.427-3.156-.606-4.712-.055-.48-.016-.972-.002-1.459.116-4.265.313-8.53.331-12.796.018-4.157.57-8.267.892-12.396.236-3.033.739-6.045 1.13-9.066.563-4.349 1.082-8.705 1.72-13.043.354-2.407.876-4.793 1.403-7.17.179-.81.605-1.565.923-2.36h3.201c.986-.23 2.099-.672 2.906-1.483.47-1.196.364-2.275.125-3.349zm.674 56.891c-1.902-.586-3.669-.789-5.251-1.024-.412.204-.653.276-.831.425-.171.142-.275.363-.409.55 1.126 2.351 1.113 2.361 2.325 3.064l1.315-1.504 2.443.566c.247-.277.499-.432.524-.616.044-.338-.044-.694-.116-1.461zm-26.356-21.299c-.78-1.477-.776-1.483-1.67-1.307-.778 1.669-.869 3.385-.074 5.109.12.259.438.427.688.66 1.018-2.038 1.018-2.038 1.056-4.462zm42.97 11.898c.658-1.268.447-2.513.13-3.652-.578-.422-1.042-.366-1.459-.113-.893.543-1.941.959-2.129 2.387.962.781 1.947 1.59 3.458 1.378zm-46.428-38.274c2.138-.913 2.138-.913 2.434-2.193-.83-.856-1.766-1.519-3.135-1.423-.689 1.136-.469 2.242-.077 3.288l.778.328zm-19.475 43.945c.52-1.152.446-2.293-.092-3.502l-.95-.169c-1.012.582-2.023 1.05-2.266 2.374.821.973 1.89 1.386 3.308 1.297zm70.181 22.02c1.149-.139 2.356-.198 3.032-1.424-.319-1.075-1.122-1.635-1.955-2.133-.276-.165-.673-.125-.989-.175-.959 1.893-.975 2.402-.088 3.732zm-14.974-70.591c-1.44.343-1.443.346-1.459 1.93l2.321 1.183c.953-.193 1.429-.629 1.429-1.482l-2.291-1.631zm-73.585 26.698l-1.588-.616c-1.142.52-1.325 1.388-1.086 2.441l.538.453c1.888-.277 1.888-.277 2.27-.793.336-.509.172-.95-.134-1.485zm45.941-38.788c.823-.983.727-1.898.285-2.832l-.717-.209c-.594.835-1.972.929-2.184 2.186.745.54 1.465.968 2.616.855zm-26.89 29.009c.489-.744.894-1.332.625-2.154-.751-.412-1.521-.459-2.294.038l-.336.666c.158.667.496 1.256 1.138 1.649l.867-.199zm-1.596 54.664c-.793.249-1.202.828-1.277 1.599-.03.31.184.643.31 1.037.773.016 1.49.17 2.184-.412.31-1.095-.348-1.712-1.217-2.224zm42.855-92.904c.056-.31.106-.423.089-.524-.084-.517-.457-.816-.874-1.046-.522-.288-1.074-.534-1.693-.347-.479.145-.843.392-.645.988.853.682 1.73 1.284 3.123.929zm23.035 40.695c.769.417 1.507 1.069 2.552.154.035-.836-.019-1.639-.98-2.066-.877.249-1.461.767-1.572 1.912zm19.496 31.167c.949.145 1.669.32 2.195-.405.089-.81-.281-1.385-.924-1.82-1.362.47-1.454.624-1.271 2.225zm-1.322-17.185c.479.763.615.892 1.014.762.198-.064.444-.252.498-.434.154-.514.011-.957-.545-1.191-.528.049-.853.336-.967.863zm-37.12-9.743c-.388.092-.639.1-.832.21-.19.109-.44.309-.456.488-.036.391.288.601.632.689.213.054.451.01.682.01.432-.369.435-.78-.026-1.397zm-28.017 45.039c-.141.229-.341.411-.353.603-.033.553.372.805.908 1.029l.815-.439-.354-1.072-1.016-.121zM633.326 299.692c-21.972.439-43.986-14.931-49.186-39.696-5.25-25.004 8.235-47.595 29.304-56.734 4.509-1.956 9.233-3.123 14.081-3.75 2.047-.265 4.143-.167 6.218-.191 21.325-.249 42.235 14.626 48.073 37.347 6.473 25.191-6.542 49.018-27.909 58.667-4.482 2.024-9.167 3.307-14.002 4.016-2.164.316-4.385.239-6.579.341zm-9.542-14.985c1.004-.211 1.86-.858 2.663-1.868l.399-1.889c-1.081-2.212-1.975-4.36-2.35-6.659-.373-2.284-.71-4.587-.853-6.894-.281-4.523.296-9.015.734-13.507.048-.489.27-.919.77-1.251.281.132.649.224.91.443.933.785 1.797 1.654 2.746 2.418 3.833 3.083 7.054 6.727 9.899 10.717 1.275 1.788 2.494 3.616 3.793 5.386 1.443 1.966 2.899 3.927 4.449 5.809.846 1.028 1.858 1.932 2.874 2.801.435.372 1.07.512 1.678.786l1.791-1.051c.538-1.117 1.124-2.073.697-3.565-.79-1.003-1.75-2.259-2.75-3.483-1.853-2.267-3.845-4.431-5.57-6.791-2.816-3.853-5.91-7.451-9.19-10.907-2.604-2.743-5.132-5.558-7.675-8.359-.397-.437-.853-.89-.742-1.701 1.006-1.28 2.435-2.235 3.724-3.337 1.854-1.585 3.817-3.054 5.575-4.738 1.243-1.19 2.535-2.274 3.958-3.225 1.724-1.152 3.431-2.33 5.153-3.485 2.23-1.496 4.513-2.896 6.986-3.969.547-.237 1.031-.62 1.516-.918l.674-1.823-1.191-2.284-2.666-.783c-1.821.195-3.28.802-4.612 1.686-1.828 1.213-3.666 2.422-5.409 3.751-3.978 3.032-7.899 6.139-11.847 9.21a74.014 74.014 0 0 1-2.63 1.968c-.233.166-.477.039-.682-.346.97-2.634 1.608-5.475 1.945-8.372.367-3.157.946-6.266 1.793-9.327.063-.228.048-.477.081-.862l-.734-1.937-1.542-.666c-1.458.121-2.52.658-3.592 1.744-.209.58-.581 1.356-.76 2.174-.207.947-.296 1.929-.343 2.9-.165 3.414-.403 6.818-1.054 10.182-.648 3.349-1.149 6.727-2.599 9.874-.72 1.562-.959 3.251-.962 4.99a96.425 96.425 0 0 1-.231 6.584 664.93 664.93 0 0 1-1.028 12.765c-.456 5.104.665 9.932 2.41 14.67.647 1.752 1.764 2.903 3.794 3.139zm-33.494-46.588c-.117.428-.28.682-.222.867.368 1.178.988 2.181 2.16 2.81.309-.201.708-.327.881-.597.573-.895 1.28-1.762 1.183-2.905-1.08-.653-1.08-.653-4.002-.175zm5.499 27.292c-1.043.536-1.954 1.246-2.34 2.446 1 1.233 1.006 1.236 3.537 1.419.525-1.304.163-2.504-.314-3.643l-.883-.222zm43.699-49.118c-.17.175-.395.315-.482.514-.472 1.077-.91 2.169-1.275 3.051.059.839.071 1.458 1.031 1.367.701-.87 1.444-1.786 2.178-2.71.07-.088.097-.214.127-.327.03-.112.039-.23.058-.348-.333-.739-.576-1.579-1.637-1.547zm-8.007 51.499c-.423 2.555-.409 3.052.156 5.258.222-.042.474-.032.659-.139.195-.114.326-.338.488-.516l.682-3.898c-.957-1.006-.957-1.006-1.985-.705zm29.394-9.583c.268-.803-.141-1.27-.629-1.64-.371-.282-.832-.444-1.202-.634-.93.302-1.804.442-2.049 1.468.068.793.505 1.328 1.255 1.726l2.625-.92zm-50.933 30.203l.561.881c1.319.147 2.607.527 3.836.051.408-.759.737-1.405-.035-2.14-.619.162-1.299.361-1.989.515-.789.177-1.727-.199-2.373.693zm66.065-34.317l.266 1.029c.928.572 1.802.886 2.833.338.212-.895.068-1.698-.384-2.559l-.923-.587-1.792 1.779zm-30.115-9.529c.131-.179.377-.367.355-.513-.118-.748-.717-1.204-1.166-1.751-.712-.87-1.551-1.022-2.52-.479-.371.386-.453.814-.2 1.336.254.186.512.476.833.59.886.316 1.73.79 2.698.817zm-38.959-17.059l1.062-1.644c-.733-1.208-.855-1.234-2.738-.7-.291.943.175 1.587.838 2.147l.838.197zm47.312 65.73c.968-1.535.928-1.727-.51-3.231l-1.203.358c.7.872.386 2.114 1.713 2.873zm-45.157-42.069c.821.359.822.367 1.497.287.097-.011.179-.148.235-.197.183-.739.488-1.434-.063-2.097-1.283.09-1.283.09-1.669 2.007zm9.742-36.83c-.515-.799-.898-1.41-1.299-2.011-.198-.297-.654-.226-.883.131-.269.421-.413.868-.224 1.392.478.855 1.144 1.181 2.406.488zm48.684 21.144c-.642.279-.839.778-.716 1.438.199.117.394.324.597.331.326.012.656-.107.934-.161.335-.93.041-1.426-.815-1.608zM397.263 335.256c-.911-1.697-.152-3.407-.875-4.867l-.681-.104c-1.059 1.385-1.13 3.19-1.997 4.747-.287.069-.65.269-.974.219-5.561-.862-11.006-2.206-16.156-4.496-18.336-8.151-30.608-21.79-36.615-40.951-2.361-7.531-3.073-15.286-2.465-23.163 1.429-18.515 9.432-33.631 23.68-45.422 8.232-6.812 17.673-11.193 28.207-13.164 4.205-.787 8.427-1.391 12.714-1.292 17.063.394 31.939 6.237 44.321 18.066 9.249 8.836 15.272 19.572 18.172 32.022 1.363 5.849 1.982 11.803 1.608 17.811-1.884 30.261-22.301 50.943-44.396 57.981-4.661 1.485-9.385 2.614-14.295 2.859-2.071.103-4.135.324-6.206.418-1.34.064-2.686-.015-4.042-.664zm-10.116-60.653c0 .56.045.931-.007 1.288-.506 3.501-1.007 7.002-1.563 10.495-.113.711-.405 1.405-.691 2.073-1.157 2.705-1.916 5.534-2.539 8.393-.495 2.272-.711 4.587-.075 6.875a12.322 12.322 0 0 0 3.372 3.367l1.335-.165c1.029-1.034 1.156-2.239 1.336-3.457.319-2.162.575-4.351 1.137-6.454.564-2.11 1.469-4.129 2.176-6.057.6-4.237 1.194-8.342 1.756-12.451.2-1.461.621-2.847 1.223-4.453 4.514-1.696 9.157-2.855 14.227-1.845.353.453.869.87 1.056 1.402a53.903 53.903 0 0 1 1.482 4.897c1.676 6.751 2.962 13.585 4.249 20.417.879 4.667.816 4.714.458 8.103.212.446.448 1.008.743 1.537.235.42.542.8.822 1.205l3.457 1.164 1.465-.455 1.674-2.397v-3.168c-.491-1.385-1.116-2.611-1.35-3.907-.758-4.208-1.865-8.33-2.851-12.482-1.212-5.102-2.572-10.169-3.502-15.339-.309-1.716-.478-3.356.069-5.051.217-.671.158-1.431.203-1.921-.641-1.792-2.085-2.675-3.089-4.202-1.146-2.968-2.079-6.253-3.103-9.511-1.114-3.543-1.692-7.109-1.124-10.821.147-.961.157-1.948.158-2.923.001-.729-.032-1.476-.192-2.183-.331-1.462-.934-2.781-2.682-3.636l-2.747-.131c-1.509.746-2.199 1.932-2.763 3.131-1.087 2.316-2.144 4.657-3.022 7.058-1.8 4.926-3.447 9.906-5.209 14.846-.819 2.296-1.746 4.555-2.65 6.82-.269.673-.555 1.362-1.421 1.854-1.788.408-3.667-.333-5.428-.565-1.281.305-2.104 1.01-2.947 1.935l-.573 2.08c1.612 2.58 4.522 3.149 7.13 4.634zm17.383 29.854c.799-2.268.72-3.164-.608-6.849-.218-.024-.479-.132-.642-.049a.8.8 0 0 0-.373.551c-.18 1.904-.268 3.81.073 5.584.419.663.851 1.018 1.55.763zm-29.774-27.252c-.217-.023-.502-.147-.641-.054-1.234.831-2.14 1.94-2.669 3.312-.121.983-.339 1.94.128 2.853l.652.256c.718-.313 1.06-.957 1.368-1.61.618-1.31 1.221-2.631 1.377-4.094.024-.211-.138-.441-.215-.663zm67.965-33.602c1.031.706 2.191.824 3.38.711.607-1.198.607-1.198-.595-3.653l-.67-.179c-1.92 1.541-1.92 1.541-2.115 3.121zm-87.266 50.817c.898-.887 1.24-1.898 1.244-3.009.001-.298-.293-.596-.483-.954-1.33.195-2.724.02-3.587 1.497.679 1.166 1.41 2.205 2.826 2.466zm17.796 20.929c.016 1.466.805 2.464 2.088 3.085.243.118.654-.112.925-.169.324-.632.635-1.16.466-2.081l-.84-1.068c-1.013-.257-1.841-.468-2.639.233zm47.784-73.763c.503-1.799.447-3.458-.186-5.189l-1.138.175c-1.268 1.584-.755 3.116-.003 4.694l1.327.32zm11.858 23.691c1.006.649 1.868.953 2.822.448.309-1.823.259-1.964-1.144-3.09-.819.617-1.717 1.169-1.678 2.642zm-36.203-47.753c1.684-.621 2.787-1.631 3.392-3.158.064-.161-.111-.417-.177-.63-.223-.034-.463-.137-.665-.087-.455.115-.892.306-1.289.449-.782.873-1.379 1.749-1.641 3.05.067.068.217.216.38.376zm28.248 67.286c.736-.017.969-.641 1.167-1.144.286-.728 1.037-1.401.409-2.426-.705-.112-1.477-.658-2.315.231.149.977.304 2.031.48 3.081.016.095.165.168.259.258zm-43.792-35.889c.112.966.108.97 1.416 1.759.625.155 1.194.07 1.668-.381.129-.691-.179-1.21-.731-1.512-.782-.427-1.604-.514-2.353.134zm-26.653 3.905c-.264 0-.663-.116-.927.023-.639.337-1.23.783-1.241 1.629.321.572.887.767 1.462.95.532.169.923-.012 1.199-.467.185-.753.073-1.438-.493-2.135zm77.926 56.416c-.129-.969-.843-1.535-1.739-1.963-.294-.141-.745.162-.741.504.01.889.239 1.656 1.108 2.059.523.072.96-.037 1.372-.6zm18.198-23.392l1.036-.431c.139-.85-.2-1.383-.934-1.691-.739.304-1.093.826-.937 1.64l.835.482z"/><path d="M400.054 260.054v-1.993l2.96-6.603c.463-.211.769.031.882.341 1.403 3.866 2.834 7.725 3.59 11.855l-.648 1.305c-2.202.257-4.363.536-6.53.748-.834.082-1.684.013-2.477.013-.152-.287-.373-.511-.332-.665.123-.463.314-.917.54-1.342.626-1.175 1.282-2.333 2.015-3.659zM223.464 199.37c.262-35.406 28.5-64.411 64.673-64.362 35.595.048 64.413 28.463 64.416 64.58.003 35.795-28.521 64.378-64.817 64.625-36.705-.598-64.247-29.868-64.272-64.843zm84.928-33.279c-1.224-2.464-2.964-3.793-4.897-4.884-3.1-1.75-6.432-2.976-9.885-3.747-3.089-.689-6.249-1.101-9.482-.444-.472.339-.977.678-1.454 1.053-.478.376-.927.789-1.244 1.062-2.001 3.122-2.425 4.031-3.121 7.166-.37 1.666-.705 3.349-.914 5.041-.835 6.785-1.567 13.581-1.682 20.427-.014.854-.028 1.711-.097 2.562-.424 5.241-.396 10.493-.382 15.743.004 1.464.082 2.929.167 4.391.135 2.315.302 4.629.459 6.943.075 1.096.153 2.192.238 3.288.162 2.068.347 4.134.491 6.204.118 1.705.148 3.417.293 5.12a33.583 33.583 0 0 1-.045 6.213c-.253 2.545-.393 5.105-.194 7.628 1.396 2.302 3.084 4.166 5.354 5.326 1.367.113 2.565.063 3.48-.899.787-1.227.92-2.552.787-3.913-.131-1.336-.354-2.663-.471-4-.47-5.352-1.372-10.648-2.049-15.973-.507-3.991-1.046-7.982-1.032-12.031.013-3.805.703-7.527 1.09-11.286.061-.589.22-1.207.856-1.711.814-.203 1.745-.503 2.698-.659 3.977-.653 7.353-2.538 10.405-5.059 3.323-2.745 6.11-5.981 8.295-9.694.923-1.569 1.666-3.256 2.371-4.939 1.499-3.579 1.608-7.353 1.441-11.163-.076-1.732-.331-3.4-1.174-4.716l-.302-3.049zm-61.052 52.318c-.457-.612-.789-1.112-1.176-1.563a29.572 29.572 0 0 0-1.481-1.566c-.359-.362-.804-.483-1.463-.314-.781 1.247-1.233 2.715-1.345 4.284-.023.316.22.651.37 1.056 1.756.348 3.262-.392 4.752-.842l.343-1.055zm69.619-22.016c-1.821.671-2.577 2.369-4.327 3.523-.995.801-2.987.457-4.207 1.815-.066.671-.066.671.418 1.141l3.599-.614 4.889-4.312-.372-1.553zM301.18 229.46c-1.19-1.081-2.634-1.518-4.064-1.655-.734.355-1.136.766-1.213 1.194-.137.953.581 1.184.86 1.682.283.506.5 1.049.735 1.552 1.114-.191 1.18-1.27 1.869-1.791.49-.44 1.449-.051 1.813-.982zm-27.541-83.728c-1.415 1.311-1.433 1.302-1.085 2.153 1.172.145 2.347.295 3.524.429.105.012.222-.078.334-.121.52-.401.711-.915.489-1.711l-.955-.75h-2.307zm-3.917 94.922c.96-.955.999-1.948.853-3.186-.538-.857-1.153-1.868-1.812-2.851-.081-.12-.39-.087-.611-.128-.556.827-.603 1.756-.538 2.854.324.355.785.745 1.095 1.231.374.583.618 1.248 1.013 2.08zm68.58-59.893c-.3 1.104-.159 1.925.151 2.715.174.444.448.838 1.016.855 1.8-.935 1.798-.936 2.447-2.335-1.643-1.326-1.643-1.326-3.614-1.235zm-71.94 15.41l1.572-3.35c-.009-1.013.088-1.896-.948-2.25-.696.082-.997.596-1.426 1.35-.058.952-.172 2.146-.182 3.341-.004.452.223.914.984.909zm-27.075-17.428l.584.873c.724 0 1.438.027 2.149-.009.526-.027.871-.329.986-1.094-.307-.57-.661-1.326-1.112-2.018-.162-.249-.556-.347-.818-.499-1.14.989-1.17.972-1.789 2.747zm88.834 45.704c-.468-1.362-.751-2.521-1.978-3.042-1.129.907-1.134.904-1.82 2.633l.254.825c1.079.23 2.203.562 3.544-.416zm-9.997-53.131c.719-.717.707-1.431.001-2.143-1.625-.018-2.431.412-2.393 1.277.566.931 1.345 1.27 2.392.866z"/><path d="M299.042 169.01l.864 1.151c-.048 1.441.201 2.864.469 4.308.7 3.768.502 7.519-.853 11.155-.742 1.991-1.933 3.666-3.631 4.945-.972.732-1.959 1.467-3.023 2.048-2.137 1.167-4.323 2.244-6.507 3.323-.539.266-1.136.451-1.762.278-.132-.196-.362-.383-.37-.578-.04-.972-.183-1.978.007-2.913.466-2.292.473-4.611.56-6.92.197-5.268 1.141-10.412 2.39-15.512.201-.819.538-1.604.724-2.148.617-.72 1.201-.89 1.818-.914.851-.033 1.703-.008 2.265-.008l7.049 1.785zm-4.592 9.792c1.217-.21 1.806-1.004 2.194-2.154-.303-.7-.481-1.529-1.329-1.932-.487.158-.832.48-.93.975-.202 1.017-.628 2.051.065 3.111z"/><g><path d="M492.27 271.062c-1.222-.261-2.254-.923-3.273-1.592-14.133-9.285-23.147-22.121-26.823-38.664-1.254-5.644-1.704-11.363-1.222-17.104 1.229-14.628 6.811-27.361 17.049-37.954 8.549-8.845 18.917-14.484 30.891-17.177 4.303-.968 8.692-1.197 13.093-1.218 21.34-.103 39.64 11.248 49.977 26.569 4.916 7.286 8.132 15.24 9.615 23.921 1.038 6.076 1.184 12.189.363 18.242-2.013 14.827-8.605 27.357-19.757 37.384-8.062 7.25-17.437 11.946-28.072 14.193-5.663 1.196-11.371 1.641-17.1 1.173-7.46-.61-14.651-2.436-21.432-5.71-1.214-.586-2.375-1.239-3.396-2.126l1.06.172c.573-.559.856-1.208.982-2.128l-1.13-1.456c-1.547-.284-1.547-.294-2.712.172.081.443.1.934.266 1.369.315.817.922 1.423 1.621 1.934zm12.921-12.347c.719-1.11.929-2.292 1.079-3.519.251-2.048.421-4.135.964-6.112.642-2.338 1.645-4.577 2.549-7.018.313-2.493.598-5.162.995-7.814.396-2.651.87-5.291 1.386-7.921.135-.688.554-1.319.834-1.957 4.815-1.893 9.619-2.954 14.493-2.04.891.468 1.358 1.041 1.6 1.743.396 1.15.751 2.318 1.057 3.496 2.024 7.792 3.468 15.707 4.967 23.61.25 1.317.486 2.649.554 3.983.067 1.321-.086 2.652-.15 4.151l1.385 2.399c.754.698 1.408.634 1.977.823.679.225 1.343.494 1.89.699l1.211-.341c1.066-.902 1.749-2.034 2.22-3.173v-2.951l-1.011-1.976c-1.266-5.417-2.397-10.408-3.603-15.382-1.292-5.329-2.657-10.64-3.676-16.033-.347-1.839-.43-3.605.148-5.411.213-.666.131-1.426.163-1.873-.745-1.928-2.308-2.868-3.289-4.441-1.497-4.107-2.796-8.421-3.995-12.77-.795-2.881-.949-5.754-.401-8.688.178-.954.307-1.937.293-2.904-.031-2.123-.524-4.105-2.176-5.684-1.339-.575-2.723-.946-4.08-.611-1.343.811-2 1.991-2.636 3.17-1.218 2.257-2.201 4.621-3.055 7.037-1.463 4.137-2.901 8.282-4.362 12.419-1.014 2.873-2.002 5.758-3.092 8.602-.563 1.468-1.052 3-2.143 4.225-1.209.411-2.406.242-3.589-.113-1.065-.319-2.13-.523-3.364-.218-.779.569-1.822 1.002-2.335 2.058-.231.829-.472 1.654.064 2.757.711.831 1.832 1.538 3.056 2.111 1.308.612 2.611 1.236 3.835 1.816.062.392.161.641.128.87-.561 3.859-1.113 7.719-1.732 11.569-.133.828-.483 1.629-.793 2.419-1.383 3.533-2.334 7.183-2.98 10.914-.339 1.955-.356 3.892.868 5.874 1.183.809 1.895 2.624 3.844 2.776l.902-.571zm58.265-56.041c-1.516.15-2.861-.89-4.278-.096-.064.194-.135.308-.133.42.029 1.385.613 2.559 1.488 3.581.19.222.629.231 1.021.361 1.038-.909 1.839-1.931 2.347-3.123l-.445-1.143zm-75.024 28.329c0 .88-.015 1.725.005 2.569.017.721.243.843 1.195.702 1.529-2.21 2.233-3.749 2.605-5.901.05-.289-.186-.629-.294-.957-1.574.787-1.574.787-3.511 3.587zm35.136 25.232c.464-2.447.227-4.878-1.014-7.316l-.966.563c-.078 2.222-.356 4.402.198 6.303.542.656.999.678 1.782.45zm-52.941-26.55c1.326.236 2.154-.619 2.973-1.394l.122-.822c-.814-.917-1.84-1.444-3.071-1.539-.855 1.237-.858 1.602-.024 3.755zm69.807-44.988c-1.294.09-1.746.806-1.773 1.69-.029.943.104 1.911.315 2.833.129.565.57 1.027 1.271 1.021.66-.439.876-1.102.943-1.929-.138-1.098-.265-2.283-.756-3.615zm-25.923-19.404c2.194-1.08 3.555-2.125 4.196-3.925.056-.158-.136-.404-.216-.614-.892-.154-1.602.247-2.389.83-.649.83-1.363 1.763-1.591 3.709zm29.694 66.505c-.229 1.183-.051 2.45.185 3.808l1.058.085c.406-.907.833-1.76 1.158-2.649.106-.288-.054-.673-.084-.943-.686-.562-1.358-.658-2.317-.301zm-72.736-23.956l.501.766c.934.129 1.679-.138 2.415-.811-.109-1.109-.755-1.783-1.795-2.112-1.004.418-1.067 1.244-1.121 2.157zm26.984-9.805c.383 1.199 1.226 1.776 2.366 1.939.512.073.911-.203 1.179-.886l-.377-1.108c-1.127-.524-2.131-.647-3.168.055zm51.657 61.21c-.15 1.382.138 2.217 1.023 2.78.716-.017 1.463.043 1.546-.985-.598-.819-1.141-1.732-2.569-1.795zm-59.125-76.213c-1.138-.681-1.402-.684-1.923-.102-.076 1.328-.066 1.34 1.231 1.531.125-.142.314-.297.422-.496.108-.197.134-.439.27-.933zm77.493 51.097c-1.234-.103-1.329-.028-1.489 1.339.617.579 1.228.647 1.916-.117-.135-.383-.287-.821-.427-1.222z"/><path d="M521.797 200.255c.215.066.538.071.595.196.395.877.79 1.761 1.083 2.676.923 2.881 1.818 5.77 2.681 8.669.169.567.184 1.191.195 1.79.009.505-.27.913-.843 1.375-2.808.257-5.804.538-8.802.794-.217.019-.449-.138-.674-.213l-.223-.813 2.77-5.053.143-2.364 3.075-7.057z"/></g></g><path fill="#DB107B" d="M138.968 184.416c-.778.878-.917 1.665-1.137 2.42-.608 2.086-1.193 4.18-1.849 6.251a18.56 18.56 0 0 1-1.138 2.731c-.258.513-.695.937-1.058 1.41l-2.1.393c-.108.121-.26.252-.364.414-.482.747-.921 1.525-1.434 2.25-.457.646-.984 1.247-1.825 1.522l-1.11-.212c-.182.065-.395.089-.54.202-.624.485-1.227.997-1.84 1.497-.767.626-1.567 1.198-2.596 1.555-.193-.137-.421-.297-.647-.459-.227-.164-.452-.331-.732-.537-1.552.647-2.703 2.055-4.44 2.244-.087.009-.181-.057-.391-.13l-.371-1.277c-.176-.065-.39-.23-.522-.179a66.204 66.204 0 0 0-3.273 1.352c-.75.338-1.513.409-2.325.332l-1.197-.991c-.983-.072-2.008.799-3.078.163.102-1.134.102-1.134 2.731-4.101l-.068-.712c-.62-.325-1.224-.218-1.81-.252-.591-.034-1.182-.063-1.771-.094l-.622-.577c-.035-.483.121-.849.439-1.104a27.71 27.71 0 0 1 1.897-1.415c.487-.327 1.043-.555 1.387-1.067-.068-.158-.093-.398-.21-.457-.616-.312-1.271-.548-1.88-.871-.442-.235-.776-.606-.842-1.176.161-.934.874-1.485 1.562-2.044.605-.492 1.235-.955 1.807-1.395-.158-.986-1.294-1.458-.814-2.946.644-1.3 2.309-2.049 3.868-3.039.121-.318.272-.674.39-1.041.12-.373.207-.757.277-1.019.835-1.254 2.048-1.742 3.255-2.162 1.961-.681 3.999-1.071 6.059-1.353a73.803 73.803 0 0 1 10.052-.668c.49 0 .98-.083 1.439-.124 1.321-.816 2.3-1.933 3.387-3.011l.082-.798c-.917-.784-2.207-1.023-2.814-2.175l.121-1.479c-1.824-1.267-4.182-1.8-5.479-3.64-.06-.255-.111-.354-.1-.445.047-.387.112-.772.172-1.164-.093-.162-.152-.381-.295-.492-.701-.545-1.445-1.034-2.132-1.594-.611-.498-1.223-1.015-1.73-1.612-.367-.432-.565-1.008-.743-1.342.011-1.005.688-1.4 1.015-1.972-.085-.202-.113-.425-.24-.542-.797-.735-1.641-1.421-2.415-2.179-.355-.348-.535-.829-.102-1.475l1.755-.536.048-.747c-1.697-1.518-3.862-2.651-5.12-4.749l.368-1.763c-1.34-.764-2.636-1.472-3.902-2.23a458.926 458.926 0 0 1-7.593-4.631c-.661-.414-1.232-.975-1.816-1.5-.085-.077-.012-.33-.012-.496.95-.388 1.738.222 2.585.402.867.184 1.711.477 2.561.733.837.253 1.67.52 2.372.738.396-.148.461-.344.25-.51a24.306 24.306 0 0 0-1.669-1.201c-2.559-1.683-5.144-3.329-7.684-5.041a21.575 21.575 0 0 1-3.83-3.267c-.341-.37-.615-.765-.644-1.286.467-.342.968-.293 1.401-.041 1.107.645 2.21 1.306 3.266 2.031 2.133 1.467 4.448 2.56 6.862 3.461.156.058.375-.032.557-.082.055-.015.084-.126.126-.195-.166-.509-.607-.749-1.003-1.042-1.75-1.292-3.51-2.57-5.232-3.899-1.959-1.512-3.816-3.146-5.505-4.96-1.312-1.409-1.539-1.781-2.416-3.79.284-.035.594-.175.777-.078.691.369 1.383.761 1.999 1.242 1.955 1.526 4.07 2.803 6.213 4.035 1.285.739 2.632 1.364 4.055 1.795.375.114.769.096 1.052-.268-.08-.667-.642-.955-1.085-1.32-2.752-2.264-5.404-4.636-7.887-7.195-1.448-1.492-2.845-3.03-4.029-4.743-.561-.811-1.049-1.673-1.549-2.525-.247-.421-.23-.489-.069-1.794.26.033.615-.031.764.115a28.11 28.11 0 0 1 2.004 2.166c1.829 2.219 3.786 4.311 6.014 6.134 1.224 1.002 2.479 1.973 3.965 2.57.232.093.533.013.901.013-.194-.364-.282-.658-.469-.859-.674-.723-1.389-1.408-2.075-2.119-2.342-2.426-4.469-5.023-6.244-7.898-.99-1.603-1.831-3.278-2.416-5.074-.217-.665-.371-1.333-.123-2.049.164 0 .421-.072.491.012.44.524.881 1.056 1.242 1.636a42.763 42.763 0 0 0 4.424 5.94c1.588 1.776 3.314 3.398 5.34 4.672.155.097.37.116.56.133.074.007.158-.091.238-.141-.016-.181.034-.412-.059-.535-.654-.868-1.344-1.708-2.009-2.568-1.515-1.958-2.911-3.995-4.073-6.186a21.15 21.15 0 0 1-1.837-4.68 8.101 8.101 0 0 1-.12-3.524c.043-.232.311-.422.465-.617.477.209.642.58.771.949.261.746.451 1.517.725 2.258 1.223 3.308 3.014 6.221 5.902 8.353.326.241.68.388 1.067.031.191-.789-.162-1.532-.373-2.259-.663-2.288-1.038-4.627-1.396-6.971-.257-1.685-.225-3.347.594-4.889l.552-.185c.395.333.615.765.708 1.265.145.778.311 1.552.423 2.335.527 3.679 1.909 7.042 3.756 10.233 1.544 2.668 3.43 5.077 5.599 7.264.346.348.698.709 1.241.775l1.312-.825c.601.069.883.376 1.074.708.443.769.847 1.563 1.225 2.367.801 1.704 1.715 3.342 2.793 4.885 1.425 2.039 3.061 3.889 5.044 5.398 1.11.845 2.093 1.807 3.028 2.831a76.666 76.666 0 0 1 5.963 7.381c1.89 2.667 3.564 5.461 4.907 8.449.236.524.579 1.004.911 1.477.037.053.331-.074.537-.126.095-.996-1.004-1.718-.623-2.883l1.379-.904c-.142-1.123-1.19-1.843-1.268-3.058.196-.104.443-.349.66-.326.481.053.948.241 1.512.399l.666-.407c-.407-.856-.811-1.643-1.154-2.456-.19-.451-.288-.946.017-1.421l1.082-.619-.115-3.197 1.014-1.169-.792-3.005.451-.669 1.875.197c.058-.292.164-.495.118-.654-.219-.758-.509-1.497-.716-2.258-.154-.566-.311-1.153-.041-1.781l1.39-.391c-.034-.299-.032-.582-.102-.846-.354-1.336-.779-2.656-1.078-4.003-.302-1.359-.33-2.75-.01-4.118.053-.225.33-.397.485-.573.493.21.613.597.729.972a56.706 56.706 0 0 0 3.029 7.72 59.63 59.63 0 0 0 2.063 3.937c1.184 2.068 2.599 3.966 4.333 5.619 1.832 1.745 2.995 3.901 3.792 6.282.349 1.044.505 2.103.568 3.197.162 2.817-.777 5.245-2.539 7.387-.565.686-1.206 1.31-1.788 1.982-1.048 1.211-1.917 2.517-2.089 4.109.103.664.29 1.212.896 1.583.239-.082.574-.105.773-.281.592-.522 1.105-1.135 1.698-1.656 1.112-.979 2.228-1.958 3.399-2.864 1.183-.915 2.534-1.482 4.009-1.831 2.872-.68 5.265.057 7.258 2.19.403.431.772.894 1.001 1.16 1.39.618 2.569 1.117 3.716 1.678.185.09.233.461.357.73l-4.204.78c-2 .945-3.269 2.319-4.25 3.95-.66 1.097-1.224 2.259-1.747 3.429-.966 2.166-1.881 4.355-2.797 6.542-2.509 5.99-6.86 10.039-12.919 12.297l-1.279.479c-.828 0-1.818-.042-2.804.009-1.776.092-3.549.238-5.323.366-.69.05-1.382.174-2.069.153-2.196-.067-4.32.48-6.477.727-.864.097-1.704.454-2.54.689z"/></svg>